<svg xmlns="http://www.w3.org/2000/svg" xmlns:xlink="http://www.w3.org/1999/xlink" width="1080" zoomAndPan="magnify" viewBox="0 0 810 809.999993" height="1080" preserveAspectRatio="xMidYMid meet" version="1.0"><path fill="#000000" d="M -40.921875 175.25 C -43.460938 168.5625 -43.976562 163.179688 -44.378906 157.714844 C -45.835938 137.976562 -46.136719 118.21875 -45.710938 98.445312 C -45.167969 73.277344 -50.371094 48.515625 -50.824219 23.429688 C -50.96875 15.339844 -50.585938 7.238281 -50.386719 -0.859375 C -50.355469 -2.058594 -50.460938 -3.59375 -48.878906 -3.96875 C -46.9375 -4.429688 -46.132812 -2.9375 -45.753906 -1.476562 C -45.121094 0.957031 -44.421875 3.445312 -44.34375 5.929688 C -43.21875 40.625 -42.523438 75.335938 -41.011719 110.011719 C -40.238281 127.730469 -39.046875 145.421875 -39.222656 163.164062 C -39.257812 166.660156 -38.757812 170.226562 -40.921875 175.25 Z M -265.773438 435.207031 C -288.160156 438.164062 -310.652344 438.484375 -333.148438 438.292969 C -358.207031 438.078125 -383.203125 439.125 -408.179688 440.863281 C -411.457031 441.089844 -417.277344 439.839844 -417.160156 443.75 C -417.03125 448.167969 -411.195312 447.117188 -407.679688 446.949219 C -391.015625 446.136719 -374.324219 445.433594 -357.714844 443.9375 C -329.707031 441.414062 -301.542969 443.78125 -273.585938 440.917969 C -263.71875 439.90625 -253.542969 440.578125 -244.089844 436.328125 C -251.363281 434.132812 -258.664062 434.269531 -265.773438 435.207031 Z M 149.527344 206.011719 C 177.289062 171.105469 207.34375 138.21875 237.5625 105.472656 C 240.632812 102.148438 243.082031 98.246094 245.71875 94.542969 C 246.480469 93.472656 246.695312 91.988281 245.34375 91.253906 C 244.617188 90.855469 243.21875 90.933594 242.515625 91.394531 C 241.066406 92.34375 239.796875 93.617188 238.605469 94.894531 C 223.402344 111.183594 208.71875 127.917969 194.605469 145.167969 C 178.417969 164.957031 161.828125 184.414062 144.707031 203.417969 C 140.828125 207.726562 136.453125 212.054688 135.210938 219.296875 C 141.949219 215.941406 145.707031 210.820312 149.527344 206.011719 Z M -323.351562 149.773438 C -322.125 151.914062 -320.433594 153.917969 -318.5625 155.546875 C -281.050781 188.292969 -242.925781 220.359375 -207.773438 255.726562 C -205.40625 258.109375 -202.039062 263.625 -198.984375 260.324219 C -195.957031 257.050781 -201.808594 254.3125 -204.238281 251.894531 C -238.324219 218.011719 -276.996094 189.089844 -310.089844 154.121094 C -312.332031 151.757812 -315.136719 149.917969 -317.738281 147.914062 C -318.714844 147.160156 -319.863281 146.628906 -320.667969 146.152344 C -323.371094 146.425781 -324.460938 147.835938 -323.351562 149.773438 Z M 10.75 648.777344 C 12.015625 664.410156 13.738281 680.011719 14.851562 695.652344 C 16.738281 722.136719 18.203125 748.652344 20.027344 775.140625 C 20.703125 784.980469 21.792969 794.796875 22.921875 804.597656 C 23.164062 806.6875 23.550781 810.074219 26.238281 809.773438 C 29.207031 809.445312 28.265625 806.285156 28.015625 804.085938 C 27.257812 797.308594 26.527344 790.523438 25.675781 783.757812 C 21.054688 747.078125 22.144531 710.007812 18.078125 673.292969 C 16.839844 662.128906 17.320312 650.675781 12.71875 638.738281 C 9.644531 642.808594 10.523438 645.933594 10.75 648.777344 Z M 175.808594 557.339844 C 190.808594 572.140625 208.839844 583.304688 224.207031 597.667969 C 246.394531 618.414062 268.578125 639.171875 290.796875 659.886719 C 292.632812 661.597656 294.640625 663.164062 296.742188 664.53125 C 297.902344 665.28125 299.515625 666.441406 300.820312 664.878906 C 302.367188 663.023438 300.878906 661.617188 299.621094 660.351562 C 298.910156 659.632812 298.039062 659.082031 297.3125 658.378906 C 263.300781 625.410156 226.636719 595.410156 191.460938 563.742188 C 185.34375 558.234375 178.824219 553.097656 169.644531 548.28125 C 170.980469 553.691406 173.722656 555.277344 175.808594 557.339844 Z M 225.945312 378.347656 C 259.789062 376.789062 293.644531 375.394531 327.476562 373.550781 C 346.425781 372.519531 365.453125 373.710938 384.328125 371.335938 C 387.183594 370.976562 392.425781 372.664062 392.132812 368.113281 C 391.929688 364.941406 386.925781 366.339844 384.183594 366.546875 C 344.324219 369.574219 304.421875 371.011719 264.441406 371.503906 C 249.472656 371.6875 234.148438 372.289062 219.394531 378.359375 C 221.578125 378.359375 223.765625 378.445312 225.945312 378.347656 Z M 97.621094 166.890625 C 115 131.785156 134.152344 97.621094 152.640625 63.105469 C 154.195312 60.203125 157.507812 55.789062 153.996094 53.792969 C 150.773438 51.960938 149.242188 57.234375 147.753906 59.851562 C 128.285156 94.101562 113.300781 130.746094 92.132812 164.109375 C 89.808594 167.773438 87.867188 172.011719 88.613281 177.511719 C 93.152344 174.699219 95.644531 170.886719 97.621094 166.890625 Z M -269.546875 719.140625 C -267.023438 718.675781 -265.59375 716.859375 -264.222656 715.109375 C -234.886719 677.621094 -202.394531 642.84375 -171.292969 606.875 C -167.402344 602.378906 -163.882812 597.628906 -161.351562 591.117188 C -174.152344 599.410156 -269.15625 712.082031 -269.546875 719.140625 Z M -140.78125 51.332031 C -133.539062 82.609375 -123.851562 113.285156 -117.855469 144.882812 C -116.589844 151.5625 -114.367188 158.066406 -112.371094 164.589844 C -111.894531 166.152344 -110.851562 168.285156 -108.640625 167.417969 C -106.988281 166.773438 -107.417969 164.78125 -107.753906 163.359375 C -109.261719 156.960938 -110.832031 150.582031 -112.46875 144.21875 C -120.550781 112.875 -125.972656 80.878906 -135.511719 49.894531 C -136.675781 46.105469 -137.183594 41.957031 -141.152344 38.214844 C -143.398438 43.257812 -141.699219 47.367188 -140.78125 51.332031 Z M -174.636719 194.351562 C -195.320312 164.878906 -213.21875 133.660156 -232.292969 103.179688 C -233.621094 101.054688 -235.304688 99.121094 -237.011719 97.269531 C -238.03125 96.164062 -239.613281 95.171875 -241.035156 96.203125 C -242.503906 97.273438 -241.878906 99.003906 -241.144531 100.347656 C -238.601562 105.015625 -236.332031 109.890625 -233.300781 114.226562 C -215.730469 139.359375 -199.132812 165.105469 -183.53125 191.503906 C -179.527344 198.28125 -174.320312 204.160156 -167.085938 208.695312 C -169.578125 203.894531 -171.558594 198.738281 -174.636719 194.351562 Z M 81.148438 650.613281 C 82.914062 656.144531 85.027344 661.566406 87.035156 667.019531 C 97.851562 696.441406 103.285156 727.546875 115.117188 756.640625 C 116.4375 759.890625 116.636719 766.214844 120.757812 764.914062 C 124.746094 763.65625 121.539062 758.191406 120.496094 754.929688 C 115.414062 739.058594 109.789062 723.355469 104.667969 707.492188 C 98.464844 688.265625 92.65625 668.910156 86.464844 649.679688 C 85.359375 646.253906 84.652344 642.273438 79.730469 639.601562 C 78.75 644.066406 80.117188 647.386719 81.148438 650.613281 Z M 198.429688 250.988281 C 226.867188 231.285156 255.234375 211.476562 283.597656 191.664062 C 284.828125 190.800781 285.960938 189.742188 286.953125 188.613281 C 288.269531 187.117188 290.058594 185.316406 288.074219 183.410156 C 286.46875 181.867188 284.734375 183.539062 283.386719 184.5 C 277.832031 188.457031 272.410156 192.597656 266.875 196.582031 C 243.296875 213.550781 218.625 228.976562 195.78125 246.96875 C 193.535156 248.742188 190.410156 250 190.230469 253.734375 C 193.785156 255.050781 196.113281 252.59375 198.429688 250.988281 Z M -252.054688 294.335938 C -278.273438 281.820312 -305.492188 271.5 -331.375 258.234375 C -338.773438 254.4375 -345.699219 249.617188 -353.949219 247.636719 C -355.785156 247.195312 -358.015625 245.621094 -359.066406 248.539062 C -359.8125 250.613281 -358.019531 251.777344 -356.539062 252.691406 C -354.832031 253.746094 -352.945312 254.511719 -351.15625 255.441406 C -336.789062 262.875 -322.007812 269.328125 -306.75 274.746094 C -288.371094 281.277344 -271.601562 291.394531 -253.703125 299.011719 C -250.621094 300.320312 -247.625 302.730469 -242.878906 300.722656 C -245.519531 296.914062 -248.953125 295.816406 -252.054688 294.335938 Z M 139.214844 611.035156 C 162.410156 643.25 185.011719 674.640625 207.617188 706.03125 C 209.582031 695.195312 148.976562 612.023438 139.214844 611.035156 Z M 236.632812 315.953125 C 272.054688 303.851562 306.230469 288.398438 341.859375 276.847656 C 344.472656 276 349.210938 275.117188 347.894531 271.570312 C 346.421875 267.601562 342.597656 270.929688 340.074219 271.738281 C 304.640625 283.085938 271.339844 300.027344 235.960938 311.550781 C 233.515625 312.347656 230.574219 313.046875 229.449219 316.660156 C 232.472656 317.929688 234.597656 316.648438 236.632812 315.953125 Z M -265.34375 497.890625 C -297.515625 510.625 -330.410156 521.332031 -362.972656 532.964844 C -366.769531 534.320312 -370.96875 535.722656 -373.625 542.019531 C -332.492188 530.335938 -295.453125 512.773438 -257.222656 498.1875 C -260.296875 495.933594 -262.953125 496.945312 -265.34375 497.890625 Z M 330.566406 557.542969 C 297.582031 542.878906 264.585938 528.253906 231.554688 513.707031 C 228.96875 512.566406 224.925781 509.761719 223.570312 512.710938 C 222.074219 515.972656 227.175781 516.414062 229.4375 518.015625 C 230.449219 518.730469 231.691406 519.140625 232.859375 519.621094 C 259.949219 530.773438 286.550781 543.003906 313.015625 555.546875 C 319.167969 558.460938 325.515625 560.96875 331.832031 563.515625 C 333.589844 564.226562 335.820312 565.160156 336.464844 561.976562 C 335.402344 559.226562 332.800781 558.535156 330.566406 557.542969 Z M 50.101562 197.832031 C 57.816406 172.710938 66.515625 147.945312 75.808594 123.367188 C 78.394531 116.535156 80.269531 109.425781 82.230469 102.375 C 82.785156 100.382812 84.148438 97.304688 81.214844 96.445312 C 78.867188 95.753906 78.652344 98.976562 77.652344 100.582031 C 77.257812 101.214844 77.09375 101.992188 76.804688 102.691406 C 63.949219 133.769531 57.359375 166.96875 44.585938 198.078125 C 43.542969 200.625 43.207031 203.460938 44.667969 207.109375 C 48.785156 204.761719 49.148438 200.945312 50.101562 197.832031 Z M 28.035156 141.382812 C 33.476562 115.957031 38.738281 90.496094 43.996094 65.03125 C 46.042969 55.136719 48.035156 45.230469 49.835938 35.289062 C 50.214844 33.207031 50.617188 30.058594 47.738281 29.59375 C 45.28125 29.195312 44.933594 32.265625 44.484375 34.039062 C 42.617188 41.375 40.644531 48.71875 39.441406 56.179688 C 36.191406 76.367188 33.875 96.683594 28.945312 116.609375 C 26.257812 127.476562 22.382812 138.28125 23 150.789062 C 27.730469 148.070312 27.394531 144.375 28.035156 141.382812 Z M -225.808594 340.769531 C -246.898438 334.585938 -267.5 327.039062 -288.09375 319.421875 C -295.183594 316.800781 -302.542969 314.914062 -309.785156 312.703125 C -311.605469 312.148438 -313.5 312.066406 -314.34375 314.074219 C -315.234375 316.1875 -313.558594 317.445312 -311.949219 318.148438 C -308.71875 319.554688 -305.40625 320.789062 -302.0625 321.902344 C -276.933594 330.253906 -251.117188 336.449219 -226.445312 346.273438 C -221.742188 348.144531 -216.78125 350.433594 -210.527344 349.253906 C -214.769531 343.902344 -220.4375 342.34375 -225.808594 340.769531 Z M -301.636719 625.632812 C -273.890625 605.351562 -246.140625 585.074219 -218.488281 564.667969 C -216.128906 562.925781 -211.238281 561.117188 -213.652344 557.671875 C -215.265625 555.375 -218.960938 558.949219 -221.246094 560.597656 C -247.285156 579.371094 -273.277344 598.207031 -299.175781 617.167969 C -302.976562 619.949219 -306.238281 623.460938 -310.453125 627.269531 C -305.894531 629.375 -303.804688 627.21875 -301.636719 625.632812 Z M 172.28125 305.285156 C 194.910156 294.554688 217.480469 283.699219 240.011719 272.757812 C 246.835938 269.441406 253.578125 265.917969 260.160156 262.148438 C 262.625 260.738281 266.933594 258.640625 265.269531 255.730469 C 263.578125 252.773438 259.84375 255.859375 257.453125 257.113281 C 231.464844 270.765625 205.433594 284.320312 178.984375 297.078125 C 173.886719 299.539062 168.3125 301.601562 164.105469 306.90625 C 167.863281 307.90625 170.125 306.304688 172.28125 305.285156 Z M -117.96875 232.355469 C -116.351562 229.050781 -118.535156 226.472656 -119.753906 223.914062 C -133.773438 194.433594 -146.789062 164.523438 -158.453125 134.023438 C -159.769531 130.582031 -161.222656 126.960938 -165.242188 125.355469 C -162.039062 146.308594 -126.570312 226.625 -117.96875 232.355469 Z M -268.761719 367.882812 C -285.542969 365.589844 -302.390625 363.796875 -319.046875 360.5625 C -335.171875 357.429688 -351.042969 352.847656 -367.484375 351.515625 C -370.464844 351.277344 -375.816406 349.625 -376.199219 353.132812 C -376.660156 357.332031 -371.113281 356.734375 -367.957031 357.25 C -340.507812 361.699219 -313.042969 366.046875 -285.554688 370.257812 C -276.984375 371.570312 -268.378906 373.359375 -257.988281 371.855469 C -262.265625 368.667969 -265.492188 368.332031 -268.761719 367.882812 Z M -51.820312 663.050781 C -53.832031 673.964844 -55.628906 684.925781 -57.34375 695.890625 C -60.816406 718.082031 -64.242188 740.28125 -67.507812 762.503906 C -67.953125 765.527344 -69.535156 770.628906 -65.816406 771.144531 C -61.433594 771.757812 -62.53125 766.476562 -62.25 763.53125 C -59.527344 734.863281 -55.582031 706.40625 -49.300781 678.257812 C -47.546875 670.394531 -45.289062 662.269531 -46.542969 652.527344 C -51.007812 655.988281 -51.203125 659.714844 -51.820312 663.050781 Z M 244.691406 444.003906 C 253.433594 445.308594 262.210938 446.429688 270.910156 447.972656 C 295.777344 452.375 320.605469 456.984375 345.464844 461.417969 C 348.285156 461.921875 352.957031 463.578125 353.46875 460.289062 C 354.113281 456.171875 348.960938 456.800781 346.050781 456.105469 C 313.78125 448.402344 280.632812 446.34375 248 440.941406 C 244.503906 440.359375 240.769531 438.890625 236.777344 441.105469 C 239.289062 443.675781 242.070312 443.609375 244.691406 444.003906 Z M -66.09375 601.304688 C -71.613281 604.578125 -72.328125 608.226562 -73.277344 611.390625 C -81.707031 639.511719 -91.246094 667.238281 -101.851562 694.613281 C -103.449219 698.742188 -104.566406 703.238281 -101.808594 708.027344 C -86.023438 674.417969 -77.570312 638.492188 -66.09375 601.304688 Z M -173.109375 752.269531 C -171.84375 752.875 -170.582031 753.484375 -169.316406 754.09375 C -151.097656 717.675781 -132.972656 681.207031 -117.671875 643.382812 C -138.53125 678.53125 -155.457031 715.574219 -173.109375 752.269531 Z M 186.46875 465.28125 C 217.496094 473.363281 247.839844 483.625 278.222656 493.773438 C 281.027344 494.710938 284.359375 495.488281 288.929688 492.636719 C 254.820312 477.117188 219.824219 470.464844 184.78125 464.089844 C 185.339844 464.496094 185.847656 465.121094 186.46875 465.28125 Z M 92.105469 593.355469 C 106.71875 621.914062 120.707031 650.777344 134.1875 679.894531 C 135.125 681.914062 136.148438 684.664062 140.835938 684.132812 C 126.765625 650.828125 111.941406 618.578125 92.324219 587.917969 C 90.707031 590.621094 91.421875 592.019531 92.105469 593.355469 Z M -209.113281 513.382812 C -224.601562 522.480469 -240.53125 530.679688 -257.039062 537.792969 C -264.921875 541.191406 -272.734375 544.820312 -280.285156 548.886719 C -283.234375 550.476562 -289.300781 552.046875 -287.164062 556.03125 C -285.03125 560.011719 -280.550781 555.8125 -277.359375 554.351562 C -252.953125 543.195312 -230.625 528.179688 -206.667969 516.175781 C -202.773438 514.226562 -198.671875 512.296875 -194.945312 507.917969 C -200.984375 508.457031 -205.042969 510.996094 -209.113281 513.382812 Z M -75.0625 160.792969 C -73.042969 155.21875 -82.378906 98.476562 -86.390625 92.269531 C -90.078125 116.25 -80.804688 138.214844 -75.0625 160.792969 Z M -230.742188 273.875 C -242.058594 265.339844 -253.402344 256.839844 -264.753906 248.355469 C -268.605469 245.476562 -272.496094 242.644531 -276.402344 239.835938 C -277.878906 238.777344 -279.660156 237.78125 -281.140625 239.472656 C -282.578125 241.113281 -281.570312 242.820312 -280.253906 244.144531 C -278.828125 245.574219 -277.410156 247.074219 -275.757812 248.210938 C -261.597656 257.988281 -247.402344 267.722656 -233.152344 277.375 C -231.589844 278.4375 -229.886719 279.851562 -227.1875 278.804688 C -227.078125 275.824219 -229.207031 275.03125 -230.742188 273.875 Z M 153.953125 140.863281 C 155.417969 138.859375 158.328125 135.667969 155.164062 133.703125 C 152.101562 131.800781 150.632812 135.90625 149.070312 137.90625 C 137.871094 152.246094 128.367188 167.746094 118.484375 182.984375 C 117.179688 184.992188 115.371094 186.988281 116.3125 191.777344 C 129.472656 174.03125 141.804688 157.515625 153.953125 140.863281 Z M 48.65625 666.109375 C 50.210938 680.613281 52.347656 695.054688 54.382812 709.503906 C 54.640625 711.355469 55.125 714.058594 57.722656 713.644531 C 59.980469 713.289062 59.242188 710.742188 59.191406 709.136719 C 58.503906 688.179688 52.707031 668.066406 48.941406 647.613281 C 45.414062 653.941406 48.007812 660.070312 48.65625 666.109375 Z M 235.769531 344.222656 C 255.394531 340.339844 275.4375 339.691406 295.140625 336.46875 C 299.25 335.796875 306.707031 336.335938 305.949219 331.683594 C 305.257812 327.441406 298.082031 330.121094 293.808594 330.546875 C 274.65625 332.460938 256.382812 339.292969 237.136719 340.78125 C 235.496094 340.910156 233.582031 341.125 233.117188 343.246094 C 233.785156 344.46875 234.804688 344.414062 235.769531 344.222656 Z M 253.292969 571.804688 C 255.140625 573.050781 257.808594 575.929688 259.734375 573.007812 C 261.585938 570.195312 258.082031 568.613281 256.160156 567.375 C 240.070312 556.984375 223.90625 546.707031 207.691406 536.511719 C 205.636719 535.21875 203.472656 533.746094 199.75 535.269531 C 217.582031 547.46875 235.390625 559.707031 253.292969 571.804688 Z M -259.160156 466.59375 C -279.441406 470.265625 -299.726562 473.902344 -319.992188 477.65625 C -321.625 477.960938 -323.988281 478.753906 -323.59375 480.824219 C -323.070312 483.59375 -320.503906 482.574219 -318.574219 482.449219 C -305.914062 481.625 -293.640625 478.765625 -281.488281 475.335938 C -273.851562 473.179688 -266.296875 470.742188 -258.703125 468.433594 C -258.855469 467.820312 -259.007812 467.207031 -259.160156 466.59375 Z M -146.738281 624.792969 C -157.257812 639.300781 -168.402344 653.394531 -176.519531 669.496094 C -177.363281 671.167969 -179.742188 673.316406 -177.480469 674.734375 C -175.019531 676.277344 -173.441406 673.347656 -172.300781 671.601562 C -164.714844 659.976562 -157.136719 648.335938 -149.878906 636.503906 C -146.945312 631.714844 -142.964844 627.351562 -141.679688 621.308594 C -144.660156 621.351562 -145.664062 623.308594 -146.738281 624.792969 Z M -277.105469 404.640625 C -293.882812 403.375 -310.398438 399.777344 -327.316406 399.867188 C -329.589844 399.878906 -333.132812 398.929688 -332.957031 402.871094 C -332.808594 406.238281 -329.535156 406.054688 -327.085938 406.21875 C -319.019531 406.765625 -310.945312 407.390625 -302.867188 407.617188 C -294.378906 407.855469 -285.878906 407.667969 -277.386719 407.667969 C -277.292969 406.660156 -277.199219 405.652344 -277.105469 404.640625 Z M -11.320312 207.695312 C -10.894531 203.230469 -10.375 198.769531 -10.066406 194.296875 C -9.09375 180.160156 -7.039062 166.078125 -7.734375 151.855469 C -7.851562 149.457031 -6.96875 145.570312 -9.957031 145.371094 C -13.558594 145.136719 -12.085938 149.140625 -12.449219 151.347656 C -14.710938 165.191406 -13.300781 179.164062 -13.75 193.074219 C -13.90625 197.941406 -13.777344 202.816406 -13.777344 207.691406 C -12.957031 207.691406 -12.136719 207.691406 -11.320312 207.695312 Z M -4.140625 79.648438 C -4.136719 79.402344 -4.214844 79.148438 -4.289062 78.910156 C -4.660156 77.734375 -4.804688 76.300781 -6.449219 76.25 C -7.949219 76.203125 -8.753906 77.316406 -9.019531 78.550781 C -10.082031 83.472656 -11.394531 88.382812 -11.902344 93.371094 C -13.03125 104.488281 -14.132812 115.667969 -9.582031 126.605469 C -6.804688 111.03125 -4.425781 95.46875 -4.140625 79.648438 Z M 174.785156 600.609375 C 181.523438 608.34375 188.191406 616.144531 195.035156 623.785156 C 199.082031 628.304688 203.335938 632.648438 207.660156 636.90625 C 208.800781 638.03125 210.535156 639.730469 212.238281 638.15625 C 213.90625 636.617188 212.546875 634.78125 211.429688 633.46875 C 200.777344 620.953125 189.546875 609.027344 176.257812 599.261719 C 175.765625 599.710938 175.273438 600.160156 174.785156 600.609375 Z M 184.792969 214.121094 C 191.703125 207.113281 198.949219 200.550781 207.144531 195.023438 C 210.671875 192.640625 213.816406 189.671875 217.03125 186.847656 C 218.589844 185.480469 220.003906 183.464844 218.660156 181.570312 C 217.085938 179.347656 215.101562 181.09375 213.386719 182.050781 C 205.285156 186.582031 199.601562 193.835938 193.523438 200.464844 C 188.503906 205.933594 180.824219 208.839844 177.476562 217.144531 C 181.410156 217.835938 183.113281 215.824219 184.792969 214.121094 Z M 291.515625 411.5 C 295.78125 412.015625 300.074219 412.113281 304.292969 411.050781 C 305.890625 410.648438 308.230469 410.894531 308.292969 408.472656 C 308.359375 405.972656 306.132812 406.050781 304.445312 405.980469 C 287.875 405.289062 271.289062 403.351562 254.164062 406.847656 C 266.613281 408.40625 279.058594 410 291.515625 411.5 Z M -238.617188 623.757812 C -239.601562 624.769531 -241.121094 626.175781 -239.835938 627.628906 C -238.230469 629.445312 -236.523438 627.941406 -235.261719 626.808594 C -229.433594 621.582031 -223.5625 616.390625 -217.953125 610.929688 C -211.722656 604.867188 -204.808594 599.34375 -201.375 590.726562 C -214.90625 600.535156 -227.054688 611.820312 -238.617188 623.757812 Z M -252.984375 402.335938 C -254.496094 402.335938 -256.183594 402.761719 -256.371094 404.667969 C -256.558594 406.542969 -255.148438 407.398438 -253.546875 407.554688 C -239.539062 408.9375 -225.542969 409.757812 -211.617188 405.71875 C -225.242188 402.273438 -239.117188 402.328125 -252.984375 402.335938 Z M -16.613281 678.964844 C -17.046875 688.019531 -17.597656 697.070312 -17.875 706.128906 C -18.082031 712.941406 -18.015625 719.765625 -17.902344 726.582031 C -17.878906 727.988281 -17.429688 729.820312 -15.550781 729.9375 C -13.515625 730.066406 -13.226562 728.132812 -13.039062 726.765625 C -10.828125 710.71875 -14.269531 694.945312 -13.949219 678.984375 C -14.835938 678.976562 -15.726562 678.972656 -16.613281 678.964844 Z M -18.59375 609.410156 C -18.59375 623.847656 -18.550781 638.289062 -18.394531 652.726562 C -18.371094 655.085938 -18.867188 658.628906 -15.082031 658.253906 C -11.652344 657.917969 -12.234375 654.484375 -12.371094 652.105469 C -12.914062 642.503906 -13.667969 632.914062 -14.34375 623.316406 C -14.765625 617.359375 -15.183594 611.398438 -15.652344 604.75 C -18.890625 606.347656 -18.59375 608.039062 -18.59375 609.410156 Z M -152.332031 264.285156 C -161.636719 253.054688 -170.898438 241.792969 -180.300781 230.648438 C -181.449219 229.285156 -183.289062 227.105469 -185.28125 229.382812 C -186.886719 231.214844 -185.59375 233.28125 -184.21875 234.816406 C -178.839844 240.847656 -173.605469 247.035156 -167.867188 252.707031 C -163.339844 257.175781 -159.816406 262.882812 -153.847656 265.75 C -153.34375 265.261719 -152.835938 264.773438 -152.332031 264.285156 Z M 156.820312 583.316406 C 158.128906 584.457031 159.890625 585.597656 161.425781 583.691406 C 162.582031 582.257812 161.648438 580.707031 160.601562 579.652344 C 150.222656 569.230469 139.914062 558.71875 127.378906 550.664062 C 135.964844 562.6875 145.707031 573.621094 156.820312 583.316406 Z M -200.054688 214.121094 C -209.664062 202.625 -219.253906 191.109375 -228.90625 179.648438 C -230.070312 178.265625 -231.832031 177.097656 -233.484375 178.566406 C -235.453125 180.316406 -234.292969 182.273438 -232.894531 183.855469 C -223.066406 194.960938 -212.972656 205.804688 -201.839844 215.605469 C -201.246094 215.109375 -200.648438 214.613281 -200.054688 214.121094 Z M 162.796875 235.140625 C 163.808594 234.074219 164.9375 232.480469 163.296875 231.253906 C 161.898438 230.207031 160.425781 231.429688 159.222656 232.296875 C 146.597656 241.386719 137.609375 253.945312 127.746094 265.78125 C 140.609375 256.878906 152.082031 246.429688 162.796875 235.140625 Z M 170.214844 337.574219 C 185.421875 333.351562 199.800781 330.253906 212.617188 322.738281 C 203.664062 320.617188 174.488281 330.953125 170.214844 337.574219 Z M 24.140625 169.554688 C 24.304688 168.175781 24.484375 166.3125 22.445312 165.953125 C 21.007812 165.695312 20.097656 166.722656 19.761719 168.03125 C 16.597656 180.378906 14.289062 192.832031 15.476562 205.832031 C 21.34375 194.429688 22.695312 181.976562 24.140625 169.554688 Z M -225.640625 305.785156 C -226.976562 305.171875 -228.785156 305.109375 -229.59375 306.769531 C -230.335938 308.289062 -229.707031 309.789062 -228.273438 310.660156 C -218.898438 316.363281 -209.113281 321.113281 -198.082031 323.140625 C -206.140625 315.503906 -215.71875 310.359375 -225.640625 305.785156 Z M 72.742188 626.855469 C 73.375 628.28125 74.105469 629.902344 75.890625 629.378906 C 78.253906 628.683594 77.574219 626.433594 77.15625 624.917969 C 75.152344 617.652344 73.148438 610.371094 70.695312 603.25 C 69.53125 599.875 68.929688 595.855469 62.773438 592.695312 C 66.820312 605.234375 68.132812 616.464844 72.742188 626.855469 Z M -104.226562 181.878906 C -104.625 196.335938 -99.824219 209.148438 -92.578125 221.191406 C -94.703125 207.535156 -97.578125 194.109375 -104.226562 181.878906 Z M 239.320312 406.398438 C 222.394531 406.398438 206.183594 406.398438 189.96875 406.398438 C 204.609375 411.585938 232.789062 411.117188 239.320312 406.398438 Z M 42.855469 632.964844 C 43.144531 634.621094 43.953125 636.671875 46.074219 636.621094 C 47.863281 636.582031 48.476562 634.851562 48.230469 633.273438 C 46.527344 622.246094 45.648438 611.011719 40.089844 600.804688 C 39.398438 611.703125 40.988281 622.355469 42.855469 632.964844 Z M 150.269531 285.121094 C 159.089844 279.484375 169.070312 275.871094 176.984375 268.667969 C 178.449219 267.335938 180.414062 265.644531 178.804688 263.589844 C 177.253906 261.609375 174.953125 262.761719 173.371094 263.980469 C 165.210938 270.261719 157.148438 276.675781 149.054688 283.042969 C 149.457031 283.734375 149.863281 284.425781 150.269531 285.121094 Z M -68.6875 188.609375 C -68.925781 184.851562 -68.941406 177.996094 -72.328125 178.449219 C -76.578125 179.019531 -72.96875 184.84375 -73.160156 188.332031 C -73.714844 198.507812 -70.660156 207.945312 -65.941406 219.011719 C -64.761719 207.292969 -68.09375 198.082031 -68.6875 188.609375 Z M 169.710938 488.210938 C 181.148438 494.042969 192.5625 499.917969 204.050781 505.648438 C 205.6875 506.460938 208.210938 507.777344 209.253906 505.234375 C 210.078125 503.230469 207.601562 502.4375 206.148438 501.574219 C 195.011719 494.964844 182.496094 491.703125 170.851562 486.316406 C 170.472656 486.945312 170.089844 487.578125 169.710938 488.210938 Z M -236.503906 487.671875 C -238.160156 488.308594 -240.152344 488.976562 -239.164062 491.347656 C -238.445312 493.074219 -236.550781 492.9375 -235.167969 492.53125 C -224.347656 489.351562 -213.34375 486.609375 -203.648438 479.929688 C -214.941406 480.925781 -225.898438 483.582031 -236.503906 487.671875 Z M -186.476562 574.804688 C -187.359375 576.0625 -189.640625 577.480469 -187.453125 579.113281 C -185.777344 580.367188 -184.078125 578.9375 -182.902344 577.597656 C -174.792969 568.367188 -166.730469 559.097656 -158.65625 549.839844 C -169.441406 556.621094 -179.191406 564.4375 -186.476562 574.804688 Z M 83.320312 189.601562 C 73.40625 198.226562 68.789062 209.960938 64.757812 222.109375 C 71.976562 211.917969 81.195312 202.773438 83.320312 189.601562 Z M 184.277344 525.925781 C 185.539062 526.605469 187.269531 527.328125 188.136719 525.425781 C 188.71875 524.136719 187.707031 523.011719 186.683594 522.230469 C 177.511719 515.246094 167.425781 509.820312 156.839844 505.125 C 164.953125 513.542969 174.089844 520.457031 184.277344 525.925781 Z M 126.617188 597.148438 C 127.761719 598.457031 129.277344 600.339844 131.015625 599.3125 C 133.082031 598.085938 131.617188 596.089844 130.632812 594.722656 C 124.175781 585.726562 118.292969 576.277344 109.820312 568.765625 C 114.511719 578.8125 119.28125 588.75 126.617188 597.148438 Z M -111.183594 621.285156 C -111.710938 622.710938 -111.917969 624.554688 -110.382812 625.378906 C -108.875 626.191406 -107.324219 625.265625 -106.644531 623.777344 C -102.296875 614.300781 -97.109375 605.160156 -94.984375 594.703125 C -102.050781 602.597656 -107.511719 611.402344 -111.183594 621.285156 Z M -233.609375 460.300781 C -235.523438 460.78125 -237.96875 461.097656 -237.230469 463.9375 C -236.636719 466.210938 -234.335938 465.703125 -232.769531 465.472656 C -223.648438 464.136719 -214.90625 461.429688 -206.449219 457.507812 C -215.917969 455.460938 -224.742188 458.089844 -233.609375 460.300781 Z M -207.347656 287.855469 C -208.550781 286.976562 -210.410156 286.753906 -211.351562 288.371094 C -212.007812 289.496094 -211.503906 290.890625 -210.457031 291.78125 C -202.988281 298.113281 -195.078125 303.703125 -185.320312 306.191406 C -191.609375 298.636719 -199.667969 293.472656 -207.347656 287.855469 Z M -176.976562 531.171875 C -187.019531 535.535156 -196.039062 541.320312 -202.949219 550.035156 C -191.976562 546.882812 -184.019531 539.652344 -176.976562 531.171875 Z M -133.210938 606.308594 C -133.808594 607.492188 -133.984375 608.90625 -132.503906 609.460938 C -131.742188 609.746094 -130.222656 609.511719 -129.792969 608.945312 C -123.785156 601.078125 -117.921875 593.105469 -116.222656 582.90625 C -123.460938 589.625 -128.828125 597.613281 -133.210938 606.308594 Z M 106.910156 205.632812 C 95.933594 212.785156 91.515625 224.53125 85.953125 235.351562 C 93.15625 225.523438 103.117188 217.675781 106.910156 205.632812 Z M -151.988281 224.75 C -153.160156 223.296875 -154.382812 220.367188 -156.5 221.84375 C -158.988281 223.578125 -156.6875 226 -155.53125 227.742188 C -150.238281 235.695312 -144.65625 243.4375 -137.351562 249.929688 C -141.390625 241.011719 -145.84375 232.382812 -151.988281 224.75 Z M 208.378906 350.550781 C 210 349.996094 213.054688 349.890625 212.332031 347.097656 C 211.773438 344.941406 209.429688 345.835938 207.738281 346.0625 C 198.03125 347.382812 188.980469 350.84375 180.082031 354.757812 C 189.71875 354.078125 199.285156 353.664062 208.378906 350.550781 Z M 108.785156 250.324219 C 117.667969 244.414062 124.953125 237.207031 128.324219 226.804688 C 119.910156 233.089844 112.773438 240.421875 108.785156 250.324219 Z M 188.398438 435.066406 C 199.144531 438.328125 209.945312 440.796875 221.214844 437.953125 C 210.414062 435.175781 199.597656 432.273438 188.398438 435.066406 Z M -241.398438 369.75 C -243.238281 369.710938 -245.113281 370.328125 -245.679688 372.242188 C -246.1875 373.957031 -244.917969 375.410156 -243.304688 375.394531 C -235.148438 375.308594 -227.042969 377.988281 -218.792969 375.601562 C -226.140625 372.539062 -233.492188 369.933594 -241.398438 369.75 Z M 7.574219 626.382812 C 7.828125 627.679688 8.570312 628.910156 9.941406 628.75 C 10.589844 628.675781 11.570312 627.320312 11.574219 626.546875 C 11.605469 618.703125 12.601562 610.703125 8.285156 603.457031 C 5.15625 611.167969 6.101562 618.777344 7.574219 626.382812 Z M -47.242188 637.1875 C -47.285156 638.78125 -47.867188 641.28125 -45.328125 641.285156 C -43.246094 641.289062 -43.085938 639 -42.703125 637.269531 C -40.53125 627.425781 -41.863281 617.34375 -40.855469 607.367188 C -43.800781 617.144531 -46.964844 626.855469 -47.242188 637.1875 Z M 160.1875 546.09375 C 161.414062 546.859375 163.125 547.304688 164.035156 545.4375 C 164.855469 543.757812 163.816406 542.53125 162.59375 541.597656 C 156.691406 537.09375 150.382812 533.296875 143.003906 531.136719 C 147.402344 537.75 153.699219 542.050781 160.1875 546.09375 Z M -231.164062 435.320312 C -231.898438 436.003906 -232.480469 436.828125 -231.972656 437.933594 C -231.359375 439.273438 -230.132812 439.511719 -228.863281 439.527344 C -221.8125 439.613281 -215.324219 437.597656 -208.269531 434.710938 C -212.773438 432.1875 -228.652344 432.992188 -231.164062 435.320312 Z M -154.078125 577.789062 C -154.773438 578.882812 -155.140625 580.128906 -154.007812 581.21875 C -152.8125 582.359375 -151.519531 581.8125 -150.691406 580.894531 C -145.566406 575.242188 -139.980469 569.832031 -139.207031 561.457031 C -145.394531 565.847656 -150.082031 571.503906 -154.078125 577.789062 Z M -184.804688 267.976562 C -185.992188 267.125 -187.625 266.339844 -188.742188 268.0625 C -189.507812 269.246094 -188.980469 270.648438 -187.902344 271.410156 C -181.496094 275.941406 -176.589844 282.703125 -168.273438 284.371094 C -172.496094 277.417969 -178.476562 272.503906 -184.804688 267.976562 Z M 208.121094 378.675781 C 198.613281 376.800781 191.554688 378.199219 184.777344 381.777344 C 192.269531 383.542969 199.585938 384.175781 208.121094 378.675781 Z M -38.410156 189.753906 C -38.5 188.976562 -39.464844 188.050781 -40.253906 187.664062 C -41.304688 187.152344 -42.441406 187.980469 -42.5 188.945312 C -42.929688 195.96875 -44.105469 203.144531 -39.144531 211.480469 C -36.609375 202.960938 -37.65625 196.335938 -38.410156 189.753906 Z M -38.410156 189.753906 " fill-opacity="1" fill-rule="nonzero"/><path fill="#000000" d="M -40.921875 175.25 C -43.460938 168.5625 -43.976562 163.179688 -44.378906 157.714844 C -45.835938 137.976562 -46.136719 118.21875 -45.710938 98.445312 C -45.167969 73.277344 -50.371094 48.515625 -50.824219 23.429688 C -50.96875 15.339844 -50.585938 7.238281 -50.386719 -0.859375 C -50.355469 -2.058594 -50.460938 -3.59375 -48.878906 -3.96875 C -46.9375 -4.429688 -46.132812 -2.9375 -45.753906 -1.476562 C -45.121094 0.957031 -44.421875 3.445312 -44.34375 5.929688 C -43.21875 40.625 -42.523438 75.335938 -41.011719 110.011719 C -40.238281 127.730469 -39.046875 145.421875 -39.222656 163.164062 C -39.257812 166.660156 -38.757812 170.226562 -40.921875 175.25 Z M -265.773438 435.207031 C -288.160156 438.164062 -310.652344 438.484375 -333.148438 438.292969 C -358.207031 438.078125 -383.203125 439.125 -408.179688 440.863281 C -411.457031 441.089844 -417.277344 439.839844 -417.160156 443.75 C -417.03125 448.167969 -411.195312 447.117188 -407.679688 446.949219 C -391.015625 446.136719 -374.324219 445.433594 -357.714844 443.9375 C -329.707031 441.414062 -301.542969 443.78125 -273.585938 440.917969 C -263.71875 439.90625 -253.542969 440.578125 -244.089844 436.328125 C -251.363281 434.132812 -258.664062 434.269531 -265.773438 435.207031 Z M 149.527344 206.011719 C 177.289062 171.105469 207.34375 138.21875 237.5625 105.472656 C 240.632812 102.148438 243.082031 98.246094 245.71875 94.542969 C 246.480469 93.472656 246.695312 91.988281 245.34375 91.253906 C 244.617188 90.855469 243.21875 90.933594 242.515625 91.394531 C 241.066406 92.34375 239.796875 93.617188 238.605469 94.894531 C 223.402344 111.183594 208.71875 127.917969 194.605469 145.167969 C 178.417969 164.957031 161.828125 184.414062 144.707031 203.417969 C 140.828125 207.726562 136.453125 212.054688 135.210938 219.296875 C 141.949219 215.941406 145.707031 210.820312 149.527344 206.011719 Z M -323.351562 149.773438 C -322.125 151.914062 -320.433594 153.917969 -318.5625 155.546875 C -281.050781 188.292969 -242.925781 220.359375 -207.773438 255.726562 C -205.40625 258.109375 -202.039062 263.625 -198.984375 260.324219 C -195.957031 257.050781 -201.808594 254.3125 -204.238281 251.894531 C -238.324219 218.011719 -276.996094 189.089844 -310.089844 154.121094 C -312.332031 151.757812 -315.136719 149.917969 -317.738281 147.914062 C -318.714844 147.160156 -319.863281 146.628906 -320.667969 146.152344 C -323.371094 146.425781 -324.460938 147.835938 -323.351562 149.773438 Z M 10.75 648.777344 C 12.015625 664.410156 13.738281 680.011719 14.851562 695.652344 C 16.738281 722.136719 18.203125 748.652344 20.027344 775.140625 C 20.703125 784.980469 21.792969 794.796875 22.921875 804.597656 C 23.164062 806.6875 23.550781 810.074219 26.238281 809.773438 C 29.207031 809.445312 28.265625 806.285156 28.015625 804.085938 C 27.257812 797.308594 26.527344 790.523438 25.675781 783.757812 C 21.054688 747.078125 22.144531 710.007812 18.078125 673.292969 C 16.839844 662.128906 17.320312 650.675781 12.71875 638.738281 C 9.644531 642.808594 10.523438 645.933594 10.75 648.777344 Z M 175.808594 557.339844 C 190.808594 572.140625 208.839844 583.304688 224.207031 597.667969 C 246.394531 618.414062 268.578125 639.171875 290.796875 659.886719 C 292.632812 661.597656 294.640625 663.164062 296.742188 664.53125 C 297.902344 665.28125 299.515625 666.441406 300.820312 664.878906 C 302.367188 663.023438 300.878906 661.617188 299.621094 660.351562 C 298.910156 659.632812 298.039062 659.082031 297.3125 658.378906 C 263.300781 625.410156 226.636719 595.410156 191.460938 563.742188 C 185.34375 558.234375 178.824219 553.097656 169.644531 548.28125 C 170.980469 553.691406 173.722656 555.277344 175.808594 557.339844 Z M 225.945312 378.347656 C 259.789062 376.789062 293.644531 375.394531 327.476562 373.550781 C 346.425781 372.519531 365.453125 373.710938 384.328125 371.335938 C 387.183594 370.976562 392.425781 372.664062 392.132812 368.113281 C 391.929688 364.941406 386.925781 366.339844 384.183594 366.546875 C 344.324219 369.574219 304.421875 371.011719 264.441406 371.503906 C 249.472656 371.6875 234.148438 372.289062 219.394531 378.359375 C 221.578125 378.359375 223.765625 378.445312 225.945312 378.347656 Z M 97.621094 166.890625 C 115 131.785156 134.152344 97.621094 152.640625 63.105469 C 154.195312 60.203125 157.507812 55.789062 153.996094 53.792969 C 150.773438 51.960938 149.242188 57.234375 147.753906 59.851562 C 128.285156 94.101562 113.300781 130.746094 92.132812 164.109375 C 89.808594 167.773438 87.867188 172.011719 88.613281 177.511719 C 93.152344 174.699219 95.644531 170.886719 97.621094 166.890625 Z M -269.546875 719.140625 C -267.023438 718.675781 -265.59375 716.859375 -264.222656 715.109375 C -234.886719 677.621094 -202.394531 642.84375 -171.292969 606.875 C -167.402344 602.378906 -163.882812 597.628906 -161.351562 591.117188 C -174.152344 599.410156 -269.15625 712.082031 -269.546875 719.140625 Z M -140.78125 51.332031 C -133.539062 82.609375 -123.851562 113.285156 -117.855469 144.882812 C -116.589844 151.5625 -114.367188 158.066406 -112.371094 164.589844 C -111.894531 166.152344 -110.851562 168.285156 -108.640625 167.417969 C -106.988281 166.773438 -107.417969 164.78125 -107.753906 163.359375 C -109.261719 156.960938 -110.832031 150.582031 -112.46875 144.21875 C -120.550781 112.875 -125.972656 80.878906 -135.511719 49.894531 C -136.675781 46.105469 -137.183594 41.957031 -141.152344 38.214844 C -143.398438 43.257812 -141.699219 47.367188 -140.78125 51.332031 Z M -174.636719 194.351562 C -195.320312 164.878906 -213.21875 133.660156 -232.292969 103.179688 C -233.621094 101.054688 -235.304688 99.121094 -237.011719 97.269531 C -238.03125 96.164062 -239.613281 95.171875 -241.035156 96.203125 C -242.503906 97.273438 -241.878906 99.003906 -241.144531 100.347656 C -238.601562 105.015625 -236.332031 109.890625 -233.300781 114.226562 C -215.730469 139.359375 -199.132812 165.105469 -183.53125 191.503906 C -179.527344 198.28125 -174.320312 204.160156 -167.085938 208.695312 C -169.578125 203.894531 -171.558594 198.738281 -174.636719 194.351562 Z M 81.148438 650.613281 C 82.914062 656.144531 85.027344 661.566406 87.035156 667.019531 C 97.851562 696.441406 103.285156 727.546875 115.117188 756.640625 C 116.4375 759.890625 116.636719 766.214844 120.757812 764.914062 C 124.746094 763.65625 121.539062 758.191406 120.496094 754.929688 C 115.414062 739.058594 109.789062 723.355469 104.667969 707.492188 C 98.464844 688.265625 92.65625 668.910156 86.464844 649.679688 C 85.359375 646.253906 84.652344 642.273438 79.730469 639.601562 C 78.75 644.066406 80.117188 647.386719 81.148438 650.613281 Z M 198.429688 250.988281 C 226.867188 231.285156 255.234375 211.476562 283.597656 191.664062 C 284.828125 190.800781 285.960938 189.742188 286.953125 188.613281 C 288.269531 187.117188 290.058594 185.316406 288.074219 183.410156 C 286.46875 181.867188 284.734375 183.539062 283.386719 184.5 C 277.832031 188.457031 272.410156 192.597656 266.875 196.582031 C 243.296875 213.550781 218.625 228.976562 195.78125 246.96875 C 193.535156 248.742188 190.410156 250 190.230469 253.734375 C 193.785156 255.050781 196.113281 252.59375 198.429688 250.988281 Z M -252.054688 294.335938 C -278.273438 281.820312 -305.492188 271.5 -331.375 258.234375 C -338.773438 254.4375 -345.699219 249.617188 -353.949219 247.636719 C -355.785156 247.195312 -358.015625 245.621094 -359.066406 248.539062 C -359.8125 250.613281 -358.019531 251.777344 -356.539062 252.691406 C -354.832031 253.746094 -352.945312 254.511719 -351.15625 255.441406 C -336.789062 262.875 -322.007812 269.328125 -306.75 274.746094 C -288.371094 281.277344 -271.601562 291.394531 -253.703125 299.011719 C -250.621094 300.320312 -247.625 302.730469 -242.878906 300.722656 C -245.519531 296.914062 -248.953125 295.816406 -252.054688 294.335938 Z M 139.214844 611.035156 C 162.410156 643.25 185.011719 674.640625 207.617188 706.03125 C 209.582031 695.195312 148.976562 612.023438 139.214844 611.035156 Z M 236.632812 315.953125 C 272.054688 303.851562 306.230469 288.398438 341.859375 276.847656 C 344.472656 276 349.210938 275.117188 347.894531 271.570312 C 346.421875 267.601562 342.597656 270.929688 340.074219 271.738281 C 304.640625 283.085938 271.339844 300.027344 235.960938 311.550781 C 233.515625 312.347656 230.574219 313.046875 229.449219 316.660156 C 232.472656 317.929688 234.597656 316.648438 236.632812 315.953125 Z M -265.34375 497.890625 C -297.515625 510.625 -330.410156 521.332031 -362.972656 532.964844 C -366.769531 534.320312 -370.96875 535.722656 -373.625 542.019531 C -332.492188 530.335938 -295.453125 512.773438 -257.222656 498.1875 C -260.296875 495.933594 -262.953125 496.945312 -265.34375 497.890625 Z M 330.566406 557.542969 C 297.582031 542.878906 264.585938 528.253906 231.554688 513.707031 C 228.96875 512.566406 224.925781 509.761719 223.570312 512.710938 C 222.074219 515.972656 227.175781 516.414062 229.4375 518.015625 C 230.449219 518.730469 231.691406 519.140625 232.859375 519.621094 C 259.949219 530.773438 286.550781 543.003906 313.015625 555.546875 C 319.167969 558.460938 325.515625 560.96875 331.832031 563.515625 C 333.589844 564.226562 335.820312 565.160156 336.464844 561.976562 C 335.402344 559.226562 332.800781 558.535156 330.566406 557.542969 Z M 50.101562 197.832031 C 57.816406 172.710938 66.515625 147.945312 75.808594 123.367188 C 78.394531 116.535156 80.269531 109.425781 82.230469 102.375 C 82.785156 100.382812 84.148438 97.304688 81.214844 96.445312 C 78.867188 95.753906 78.652344 98.976562 77.652344 100.582031 C 77.257812 101.214844 77.09375 101.992188 76.804688 102.691406 C 63.949219 133.769531 57.359375 166.96875 44.585938 198.078125 C 43.542969 200.625 43.207031 203.460938 44.667969 207.109375 C 48.785156 204.761719 49.148438 200.945312 50.101562 197.832031 Z M 28.035156 141.382812 C 33.476562 115.957031 38.738281 90.496094 43.996094 65.03125 C 46.042969 55.136719 48.035156 45.230469 49.835938 35.289062 C 50.214844 33.207031 50.617188 30.058594 47.738281 29.59375 C 45.28125 29.195312 44.933594 32.265625 44.484375 34.039062 C 42.617188 41.375 40.644531 48.71875 39.441406 56.179688 C 36.191406 76.367188 33.875 96.683594 28.945312 116.609375 C 26.257812 127.476562 22.382812 138.28125 23 150.789062 C 27.730469 148.070312 27.394531 144.375 28.035156 141.382812 Z M -225.808594 340.769531 C -246.898438 334.585938 -267.5 327.039062 -288.09375 319.421875 C -295.183594 316.800781 -302.542969 314.914062 -309.785156 312.703125 C -311.605469 312.148438 -313.5 312.066406 -314.34375 314.074219 C -315.234375 316.1875 -313.558594 317.445312 -311.949219 318.148438 C -308.71875 319.554688 -305.40625 320.789062 -302.0625 321.902344 C -276.933594 330.253906 -251.117188 336.449219 -226.445312 346.273438 C -221.742188 348.144531 -216.78125 350.433594 -210.527344 349.253906 C -214.769531 343.902344 -220.4375 342.34375 -225.808594 340.769531 Z M -301.636719 625.632812 C -273.890625 605.351562 -246.140625 585.074219 -218.488281 564.667969 C -216.128906 562.925781 -211.238281 561.117188 -213.652344 557.671875 C -215.265625 555.375 -218.960938 558.949219 -221.246094 560.597656 C -247.285156 579.371094 -273.277344 598.207031 -299.175781 617.167969 C -302.976562 619.949219 -306.238281 623.460938 -310.453125 627.269531 C -305.894531 629.375 -303.804688 627.21875 -301.636719 625.632812 Z M 172.28125 305.285156 C 194.910156 294.554688 217.480469 283.699219 240.011719 272.757812 C 246.835938 269.441406 253.578125 265.917969 260.160156 262.148438 C 262.625 260.738281 266.933594 258.640625 265.269531 255.730469 C 263.578125 252.773438 259.84375 255.859375 257.453125 257.113281 C 231.464844 270.765625 205.433594 284.320312 178.984375 297.078125 C 173.886719 299.539062 168.3125 301.601562 164.105469 306.90625 C 167.863281 307.90625 170.125 306.304688 172.28125 305.285156 Z M -117.96875 232.355469 C -116.351562 229.050781 -118.535156 226.472656 -119.753906 223.914062 C -133.773438 194.433594 -146.789062 164.523438 -158.453125 134.023438 C -159.769531 130.582031 -161.222656 126.960938 -165.242188 125.355469 C -162.039062 146.308594 -126.570312 226.625 -117.96875 232.355469 Z M -268.761719 367.882812 C -285.542969 365.589844 -302.390625 363.796875 -319.046875 360.5625 C -335.171875 357.429688 -351.042969 352.847656 -367.484375 351.515625 C -370.464844 351.277344 -375.816406 349.625 -376.199219 353.132812 C -376.660156 357.332031 -371.113281 356.734375 -367.957031 357.25 C -340.507812 361.699219 -313.042969 366.046875 -285.554688 370.257812 C -276.984375 371.570312 -268.378906 373.359375 -257.988281 371.855469 C -262.265625 368.667969 -265.492188 368.332031 -268.761719 367.882812 Z M -51.820312 663.050781 C -53.832031 673.964844 -55.628906 684.925781 -57.34375 695.890625 C -60.816406 718.082031 -64.242188 740.28125 -67.507812 762.503906 C -67.953125 765.527344 -69.535156 770.628906 -65.816406 771.144531 C -61.433594 771.757812 -62.53125 766.476562 -62.25 763.53125 C -59.527344 734.863281 -55.582031 706.40625 -49.300781 678.257812 C -47.546875 670.394531 -45.289062 662.269531 -46.542969 652.527344 C -51.007812 655.988281 -51.203125 659.714844 -51.820312 663.050781 Z M 244.691406 444.003906 C 253.433594 445.308594 262.210938 446.429688 270.910156 447.972656 C 295.777344 452.375 320.605469 456.984375 345.464844 461.417969 C 348.285156 461.921875 352.957031 463.578125 353.46875 460.289062 C 354.113281 456.171875 348.960938 456.800781 346.050781 456.105469 C 313.78125 448.402344 280.632812 446.34375 248 440.941406 C 244.503906 440.359375 240.769531 438.890625 236.777344 441.105469 C 239.289062 443.675781 242.070312 443.609375 244.691406 444.003906 Z M -66.09375 601.304688 C -71.613281 604.578125 -72.328125 608.226562 -73.277344 611.390625 C -81.707031 639.511719 -91.246094 667.238281 -101.851562 694.613281 C -103.449219 698.742188 -104.566406 703.238281 -101.808594 708.027344 C -86.023438 674.417969 -77.570312 638.492188 -66.09375 601.304688 Z M -173.109375 752.269531 C -171.84375 752.875 -170.582031 753.484375 -169.316406 754.09375 C -151.097656 717.675781 -132.972656 681.207031 -117.671875 643.382812 C -138.53125 678.53125 -155.457031 715.574219 -173.109375 752.269531 Z M 186.46875 465.28125 C 217.496094 473.363281 247.839844 483.625 278.222656 493.773438 C 281.027344 494.710938 284.359375 495.488281 288.929688 492.636719 C 254.820312 477.117188 219.824219 470.464844 184.78125 464.089844 C 185.339844 464.496094 185.847656 465.121094 186.46875 465.28125 Z M 92.105469 593.355469 C 106.71875 621.914062 120.707031 650.777344 134.1875 679.894531 C 135.125 681.914062 136.148438 684.664062 140.835938 684.132812 C 126.765625 650.828125 111.941406 618.578125 92.324219 587.917969 C 90.707031 590.621094 91.421875 592.019531 92.105469 593.355469 Z M -209.113281 513.382812 C -224.601562 522.480469 -240.53125 530.679688 -257.039062 537.792969 C -264.921875 541.191406 -272.734375 544.820312 -280.285156 548.886719 C -283.234375 550.476562 -289.300781 552.046875 -287.164062 556.03125 C -285.03125 560.011719 -280.550781 555.8125 -277.359375 554.351562 C -252.953125 543.195312 -230.625 528.179688 -206.667969 516.175781 C -202.773438 514.226562 -198.671875 512.296875 -194.945312 507.917969 C -200.984375 508.457031 -205.042969 510.996094 -209.113281 513.382812 Z M -75.0625 160.792969 C -73.042969 155.21875 -82.378906 98.476562 -86.390625 92.269531 C -90.078125 116.25 -80.804688 138.214844 -75.0625 160.792969 Z M -230.742188 273.875 C -242.058594 265.339844 -253.402344 256.839844 -264.753906 248.355469 C -268.605469 245.476562 -272.496094 242.644531 -276.402344 239.835938 C -277.878906 238.777344 -279.660156 237.78125 -281.140625 239.472656 C -282.578125 241.113281 -281.570312 242.820312 -280.253906 244.144531 C -278.828125 245.574219 -277.410156 247.074219 -275.757812 248.210938 C -261.597656 257.988281 -247.402344 267.722656 -233.152344 277.375 C -231.589844 278.4375 -229.886719 279.851562 -227.1875 278.804688 C -227.078125 275.824219 -229.207031 275.03125 -230.742188 273.875 Z M 153.953125 140.863281 C 155.417969 138.859375 158.328125 135.667969 155.164062 133.703125 C 152.101562 131.800781 150.632812 135.90625 149.070312 137.90625 C 137.871094 152.246094 128.367188 167.746094 118.484375 182.984375 C 117.179688 184.992188 115.371094 186.988281 116.3125 191.777344 C 129.472656 174.03125 141.804688 157.515625 153.953125 140.863281 Z M 48.65625 666.109375 C 50.210938 680.613281 52.347656 695.054688 54.382812 709.503906 C 54.640625 711.355469 55.125 714.058594 57.722656 713.644531 C 59.980469 713.289062 59.242188 710.742188 59.191406 709.136719 C 58.503906 688.179688 52.707031 668.066406 48.941406 647.613281 C 45.414062 653.941406 48.007812 660.070312 48.65625 666.109375 Z M 235.769531 344.222656 C 255.394531 340.339844 275.4375 339.691406 295.140625 336.46875 C 299.25 335.796875 306.707031 336.335938 305.949219 331.683594 C 305.257812 327.441406 298.082031 330.121094 293.808594 330.546875 C 274.65625 332.460938 256.382812 339.292969 237.136719 340.78125 C 235.496094 340.910156 233.582031 341.125 233.117188 343.246094 C 233.785156 344.46875 234.804688 344.414062 235.769531 344.222656 Z M 253.292969 571.804688 C 255.140625 573.050781 257.808594 575.929688 259.734375 573.007812 C 261.585938 570.195312 258.082031 568.613281 256.160156 567.375 C 240.070312 556.984375 223.90625 546.707031 207.691406 536.511719 C 205.636719 535.21875 203.472656 533.746094 199.75 535.269531 C 217.582031 547.46875 235.390625 559.707031 253.292969 571.804688 Z M -259.160156 466.59375 C -279.441406 470.265625 -299.726562 473.902344 -319.992188 477.65625 C -321.625 477.960938 -323.988281 478.753906 -323.59375 480.824219 C -323.070312 483.59375 -320.503906 482.574219 -318.574219 482.449219 C -305.914062 481.625 -293.640625 478.765625 -281.488281 475.335938 C -273.851562 473.179688 -266.296875 470.742188 -258.703125 468.433594 C -258.855469 467.820312 -259.007812 467.207031 -259.160156 466.59375 Z M -146.738281 624.792969 C -157.257812 639.300781 -168.402344 653.394531 -176.519531 669.496094 C -177.363281 671.167969 -179.742188 673.316406 -177.480469 674.734375 C -175.019531 676.277344 -173.441406 673.347656 -172.300781 671.601562 C -164.714844 659.976562 -157.136719 648.335938 -149.878906 636.503906 C -146.945312 631.714844 -142.964844 627.351562 -141.679688 621.308594 C -144.660156 621.351562 -145.664062 623.308594 -146.738281 624.792969 Z M -277.105469 404.640625 C -293.882812 403.375 -310.398438 399.777344 -327.316406 399.867188 C -329.589844 399.878906 -333.132812 398.929688 -332.957031 402.871094 C -332.808594 406.238281 -329.535156 406.054688 -327.085938 406.21875 C -319.019531 406.765625 -310.945312 407.390625 -302.867188 407.617188 C -294.378906 407.855469 -285.878906 407.667969 -277.386719 407.667969 C -277.292969 406.660156 -277.199219 405.652344 -277.105469 404.640625 Z M -11.320312 207.695312 C -10.894531 203.230469 -10.375 198.769531 -10.066406 194.296875 C -9.09375 180.160156 -7.039062 166.078125 -7.734375 151.855469 C -7.851562 149.457031 -6.96875 145.570312 -9.957031 145.371094 C -13.558594 145.136719 -12.085938 149.140625 -12.449219 151.347656 C -14.710938 165.191406 -13.300781 179.164062 -13.75 193.074219 C -13.90625 197.941406 -13.777344 202.816406 -13.777344 207.691406 C -12.957031 207.691406 -12.136719 207.691406 -11.320312 207.695312 Z M -4.140625 79.648438 C -4.136719 79.402344 -4.214844 79.148438 -4.289062 78.910156 C -4.660156 77.734375 -4.804688 76.300781 -6.449219 76.25 C -7.949219 76.203125 -8.753906 77.316406 -9.019531 78.550781 C -10.082031 83.472656 -11.394531 88.382812 -11.902344 93.371094 C -13.03125 104.488281 -14.132812 115.667969 -9.582031 126.605469 C -6.804688 111.03125 -4.425781 95.46875 -4.140625 79.648438 Z M 174.785156 600.609375 C 181.523438 608.34375 188.191406 616.144531 195.035156 623.785156 C 199.082031 628.304688 203.335938 632.648438 207.660156 636.90625 C 208.800781 638.03125 210.535156 639.730469 212.238281 638.15625 C 213.90625 636.617188 212.546875 634.78125 211.429688 633.46875 C 200.777344 620.953125 189.546875 609.027344 176.257812 599.261719 C 175.765625 599.710938 175.273438 600.160156 174.785156 600.609375 Z M 184.792969 214.121094 C 191.703125 207.113281 198.949219 200.550781 207.144531 195.023438 C 210.671875 192.640625 213.816406 189.671875 217.03125 186.847656 C 218.589844 185.480469 220.003906 183.464844 218.660156 181.570312 C 217.085938 179.347656 215.101562 181.09375 213.386719 182.050781 C 205.285156 186.582031 199.601562 193.835938 193.523438 200.464844 C 188.503906 205.933594 180.824219 208.839844 177.476562 217.144531 C 181.410156 217.835938 183.113281 215.824219 184.792969 214.121094 Z M 291.515625 411.5 C 295.78125 412.015625 300.074219 412.113281 304.292969 411.050781 C 305.890625 410.648438 308.230469 410.894531 308.292969 408.472656 C 308.359375 405.972656 306.132812 406.050781 304.445312 405.980469 C 287.875 405.289062 271.289062 403.351562 254.164062 406.847656 C 266.613281 408.40625 279.058594 410 291.515625 411.5 Z M -238.617188 623.757812 C -239.601562 624.769531 -241.121094 626.175781 -239.835938 627.628906 C -238.230469 629.445312 -236.523438 627.941406 -235.261719 626.808594 C -229.433594 621.582031 -223.5625 616.390625 -217.953125 610.929688 C -211.722656 604.867188 -204.808594 599.34375 -201.375 590.726562 C -214.90625 600.535156 -227.054688 611.820312 -238.617188 623.757812 Z M -252.984375 402.335938 C -254.496094 402.335938 -256.183594 402.761719 -256.371094 404.667969 C -256.558594 406.542969 -255.148438 407.398438 -253.546875 407.554688 C -239.539062 408.9375 -225.542969 409.757812 -211.617188 405.71875 C -225.242188 402.273438 -239.117188 402.328125 -252.984375 402.335938 Z M -16.613281 678.964844 C -17.046875 688.019531 -17.597656 697.070312 -17.875 706.128906 C -18.082031 712.941406 -18.015625 719.765625 -17.902344 726.582031 C -17.878906 727.988281 -17.429688 729.820312 -15.550781 729.9375 C -13.515625 730.066406 -13.226562 728.132812 -13.039062 726.765625 C -10.828125 710.71875 -14.269531 694.945312 -13.949219 678.984375 C -14.835938 678.976562 -15.726562 678.972656 -16.613281 678.964844 Z M -18.59375 609.410156 C -18.59375 623.847656 -18.550781 638.289062 -18.394531 652.726562 C -18.371094 655.085938 -18.867188 658.628906 -15.082031 658.253906 C -11.652344 657.917969 -12.234375 654.484375 -12.371094 652.105469 C -12.914062 642.503906 -13.667969 632.914062 -14.34375 623.316406 C -14.765625 617.359375 -15.183594 611.398438 -15.652344 604.75 C -18.890625 606.347656 -18.59375 608.039062 -18.59375 609.410156 Z M -152.332031 264.285156 C -161.636719 253.054688 -170.898438 241.792969 -180.300781 230.648438 C -181.449219 229.285156 -183.289062 227.105469 -185.28125 229.382812 C -186.886719 231.214844 -185.59375 233.28125 -184.21875 234.816406 C -178.839844 240.847656 -173.605469 247.035156 -167.867188 252.707031 C -163.339844 257.175781 -159.816406 262.882812 -153.847656 265.75 C -153.34375 265.261719 -152.835938 264.773438 -152.332031 264.285156 Z M 156.820312 583.316406 C 158.128906 584.457031 159.890625 585.597656 161.425781 583.691406 C 162.582031 582.257812 161.648438 580.707031 160.601562 579.652344 C 150.222656 569.230469 139.914062 558.71875 127.378906 550.664062 C 135.964844 562.6875 145.707031 573.621094 156.820312 583.316406 Z M -200.054688 214.121094 C -209.664062 202.625 -219.253906 191.109375 -228.90625 179.648438 C -230.070312 178.265625 -231.832031 177.097656 -233.484375 178.566406 C -235.453125 180.316406 -234.292969 182.273438 -232.894531 183.855469 C -223.066406 194.960938 -212.972656 205.804688 -201.839844 215.605469 C -201.246094 215.109375 -200.648438 214.613281 -200.054688 214.121094 Z M 162.796875 235.140625 C 163.808594 234.074219 164.9375 232.480469 163.296875 231.253906 C 161.898438 230.207031 160.425781 231.429688 159.222656 232.296875 C 146.597656 241.386719 137.609375 253.945312 127.746094 265.78125 C 140.609375 256.878906 152.082031 246.429688 162.796875 235.140625 Z M 170.214844 337.574219 C 185.421875 333.351562 199.800781 330.253906 212.617188 322.738281 C 203.664062 320.617188 174.488281 330.953125 170.214844 337.574219 Z M 24.140625 169.554688 C 24.304688 168.175781 24.484375 166.3125 22.445312 165.953125 C 21.007812 165.695312 20.097656 166.722656 19.761719 168.03125 C 16.597656 180.378906 14.289062 192.832031 15.476562 205.832031 C 21.34375 194.429688 22.695312 181.976562 24.140625 169.554688 Z M -225.640625 305.785156 C -226.976562 305.171875 -228.785156 305.109375 -229.59375 306.769531 C -230.335938 308.289062 -229.707031 309.789062 -228.273438 310.660156 C -218.898438 316.363281 -209.113281 321.113281 -198.082031 323.140625 C -206.140625 315.503906 -215.71875 310.359375 -225.640625 305.785156 Z M 72.742188 626.855469 C 73.375 628.28125 74.105469 629.902344 75.890625 629.378906 C 78.253906 628.683594 77.574219 626.433594 77.15625 624.917969 C 75.152344 617.652344 73.148438 610.371094 70.695312 603.25 C 69.53125 599.875 68.929688 595.855469 62.773438 592.695312 C 66.820312 605.234375 68.132812 616.464844 72.742188 626.855469 Z M -104.226562 181.878906 C -104.625 196.335938 -99.824219 209.148438 -92.578125 221.191406 C -94.703125 207.535156 -97.578125 194.109375 -104.226562 181.878906 Z M 239.320312 406.398438 C 222.394531 406.398438 206.183594 406.398438 189.96875 406.398438 C 204.609375 411.585938 232.789062 411.117188 239.320312 406.398438 Z M 42.855469 632.964844 C 43.144531 634.621094 43.953125 636.671875 46.074219 636.621094 C 47.863281 636.582031 48.476562 634.851562 48.230469 633.273438 C 46.527344 622.246094 45.648438 611.011719 40.089844 600.804688 C 39.398438 611.703125 40.988281 622.355469 42.855469 632.964844 Z M 150.269531 285.121094 C 159.089844 279.484375 169.070312 275.871094 176.984375 268.667969 C 178.449219 267.335938 180.414062 265.644531 178.804688 263.589844 C 177.253906 261.609375 174.953125 262.761719 173.371094 263.980469 C 165.210938 270.261719 157.148438 276.675781 149.054688 283.042969 C 149.457031 283.734375 149.863281 284.425781 150.269531 285.121094 Z M -68.6875 188.609375 C -68.925781 184.851562 -68.941406 177.996094 -72.328125 178.449219 C -76.578125 179.019531 -72.96875 184.84375 -73.160156 188.332031 C -73.714844 198.507812 -70.660156 207.945312 -65.941406 219.011719 C -64.761719 207.292969 -68.09375 198.082031 -68.6875 188.609375 Z M 169.710938 488.210938 C 181.148438 494.042969 192.5625 499.917969 204.050781 505.648438 C 205.6875 506.460938 208.210938 507.777344 209.253906 505.234375 C 210.078125 503.230469 207.601562 502.4375 206.148438 501.574219 C 195.011719 494.964844 182.496094 491.703125 170.851562 486.316406 C 170.472656 486.945312 170.089844 487.578125 169.710938 488.210938 Z M -236.503906 487.671875 C -238.160156 488.308594 -240.152344 488.976562 -239.164062 491.347656 C -238.445312 493.074219 -236.550781 492.9375 -235.167969 492.53125 C -224.347656 489.351562 -213.34375 486.609375 -203.648438 479.929688 C -214.941406 480.925781 -225.898438 483.582031 -236.503906 487.671875 Z M -186.476562 574.804688 C -187.359375 576.0625 -189.640625 577.480469 -187.453125 579.113281 C -185.777344 580.367188 -184.078125 578.9375 -182.902344 577.597656 C -174.792969 568.367188 -166.730469 559.097656 -158.65625 549.839844 C -169.441406 556.621094 -179.191406 564.4375 -186.476562 574.804688 Z M 83.320312 189.601562 C 73.40625 198.226562 68.789062 209.960938 64.757812 222.109375 C 71.976562 211.917969 81.195312 202.773438 83.320312 189.601562 Z M 184.277344 525.925781 C 185.539062 526.605469 187.269531 527.328125 188.136719 525.425781 C 188.71875 524.136719 187.707031 523.011719 186.683594 522.230469 C 177.511719 515.246094 167.425781 509.820312 156.839844 505.125 C 164.953125 513.542969 174.089844 520.457031 184.277344 525.925781 Z M 126.617188 597.148438 C 127.761719 598.457031 129.277344 600.339844 131.015625 599.3125 C 133.082031 598.085938 131.617188 596.089844 130.632812 594.722656 C 124.175781 585.726562 118.292969 576.277344 109.820312 568.765625 C 114.511719 578.8125 119.28125 588.75 126.617188 597.148438 Z M -111.183594 621.285156 C -111.710938 622.710938 -111.917969 624.554688 -110.382812 625.378906 C -108.875 626.191406 -107.324219 625.265625 -106.644531 623.777344 C -102.296875 614.300781 -97.109375 605.160156 -94.984375 594.703125 C -102.050781 602.597656 -107.511719 611.402344 -111.183594 621.285156 Z M -233.609375 460.300781 C -235.523438 460.78125 -237.96875 461.097656 -237.230469 463.9375 C -236.636719 466.210938 -234.335938 465.703125 -232.769531 465.472656 C -223.648438 464.136719 -214.90625 461.429688 -206.449219 457.507812 C -215.917969 455.460938 -224.742188 458.089844 -233.609375 460.300781 Z M -207.347656 287.855469 C -208.550781 286.976562 -210.410156 286.753906 -211.351562 288.371094 C -212.007812 289.496094 -211.503906 290.890625 -210.457031 291.78125 C -202.988281 298.113281 -195.078125 303.703125 -185.320312 306.191406 C -191.609375 298.636719 -199.667969 293.472656 -207.347656 287.855469 Z M -176.976562 531.171875 C -187.019531 535.535156 -196.039062 541.320312 -202.949219 550.035156 C -191.976562 546.882812 -184.019531 539.652344 -176.976562 531.171875 Z M -133.210938 606.308594 C -133.808594 607.492188 -133.984375 608.90625 -132.503906 609.460938 C -131.742188 609.746094 -130.222656 609.511719 -129.792969 608.945312 C -123.785156 601.078125 -117.921875 593.105469 -116.222656 582.90625 C -123.460938 589.625 -128.828125 597.613281 -133.210938 606.308594 Z M 106.910156 205.632812 C 95.933594 212.785156 91.515625 224.53125 85.953125 235.351562 C 93.15625 225.523438 103.117188 217.675781 106.910156 205.632812 Z M -151.988281 224.75 C -153.160156 223.296875 -154.382812 220.367188 -156.5 221.84375 C -158.988281 223.578125 -156.6875 226 -155.53125 227.742188 C -150.238281 235.695312 -144.65625 243.4375 -137.351562 249.929688 C -141.390625 241.011719 -145.84375 232.382812 -151.988281 224.75 Z M 208.378906 350.550781 C 210 349.996094 213.054688 349.890625 212.332031 347.097656 C 211.773438 344.941406 209.429688 345.835938 207.738281 346.0625 C 198.03125 347.382812 188.980469 350.84375 180.082031 354.757812 C 189.71875 354.078125 199.285156 353.664062 208.378906 350.550781 Z M 108.785156 250.324219 C 117.667969 244.414062 124.953125 237.207031 128.324219 226.804688 C 119.910156 233.089844 112.773438 240.421875 108.785156 250.324219 Z M 188.398438 435.066406 C 199.144531 438.328125 209.945312 440.796875 221.214844 437.953125 C 210.414062 435.175781 199.597656 432.273438 188.398438 435.066406 Z M -241.398438 369.75 C -243.238281 369.710938 -245.113281 370.328125 -245.679688 372.242188 C -246.1875 373.957031 -244.917969 375.410156 -243.304688 375.394531 C -235.148438 375.308594 -227.042969 377.988281 -218.792969 375.601562 C -226.140625 372.539062 -233.492188 369.933594 -241.398438 369.75 Z M 7.574219 626.382812 C 7.828125 627.679688 8.570312 628.910156 9.941406 628.75 C 10.589844 628.675781 11.570312 627.320312 11.574219 626.546875 C 11.605469 618.703125 12.601562 610.703125 8.285156 603.457031 C 5.15625 611.167969 6.101562 618.777344 7.574219 626.382812 Z M -47.242188 637.1875 C -47.285156 638.78125 -47.867188 641.28125 -45.328125 641.285156 C -43.246094 641.289062 -43.085938 639 -42.703125 637.269531 C -40.53125 627.425781 -41.863281 617.34375 -40.855469 607.367188 C -43.800781 617.144531 -46.964844 626.855469 -47.242188 637.1875 Z M 160.1875 546.09375 C 161.414062 546.859375 163.125 547.304688 164.035156 545.4375 C 164.855469 543.757812 163.816406 542.53125 162.59375 541.597656 C 156.691406 537.09375 150.382812 533.296875 143.003906 531.136719 C 147.402344 537.75 153.699219 542.050781 160.1875 546.09375 Z M -231.164062 435.320312 C -231.898438 436.003906 -232.480469 436.828125 -231.972656 437.933594 C -231.359375 439.273438 -230.132812 439.511719 -228.863281 439.527344 C -221.8125 439.613281 -215.324219 437.597656 -208.269531 434.710938 C -212.773438 432.1875 -228.652344 432.992188 -231.164062 435.320312 Z M -154.078125 577.789062 C -154.773438 578.882812 -155.140625 580.128906 -154.007812 581.21875 C -152.8125 582.359375 -151.519531 581.8125 -150.691406 580.894531 C -145.566406 575.242188 -139.980469 569.832031 -139.207031 561.457031 C -145.394531 565.847656 -150.082031 571.503906 -154.078125 577.789062 Z M -184.804688 267.976562 C -185.992188 267.125 -187.625 266.339844 -188.742188 268.0625 C -189.507812 269.246094 -188.980469 270.648438 -187.902344 271.410156 C -181.496094 275.941406 -176.589844 282.703125 -168.273438 284.371094 C -172.496094 277.417969 -178.476562 272.503906 -184.804688 267.976562 Z M 208.121094 378.675781 C 198.613281 376.800781 191.554688 378.199219 184.777344 381.777344 C 192.269531 383.542969 199.585938 384.175781 208.121094 378.675781 Z M -38.410156 189.753906 C -38.5 188.976562 -39.464844 188.050781 -40.253906 187.664062 C -41.304688 187.152344 -42.441406 187.980469 -42.5 188.945312 C -42.929688 195.96875 -44.105469 203.144531 -39.144531 211.480469 C -36.609375 202.960938 -37.65625 196.335938 -38.410156 189.753906 Z M -38.410156 189.753906 " fill-opacity="1" fill-rule="nonzero"/></svg>