<svg xmlns="http://www.w3.org/2000/svg" xmlns:xlink="http://www.w3.org/1999/xlink" width="1920" zoomAndPan="magnify" viewBox="0 0 1440 809.999993" height="1080" preserveAspectRatio="xMidYMid meet" version="1.0"><path fill="#000000" d="M -37.894531 192.5 C -40.265625 186.253906 -40.746094 181.226562 -41.125 176.125 C -42.484375 157.695312 -42.765625 139.246094 -42.367188 120.785156 C -41.863281 97.289062 -46.71875 74.164062 -47.140625 50.746094 C -47.277344 43.1875 -46.917969 35.625 -46.730469 28.0625 C -46.703125 26.945312 -46.804688 25.511719 -45.324219 25.160156 C -43.511719 24.730469 -42.761719 26.121094 -42.40625 27.488281 C -41.820312 29.757812 -41.167969 32.082031 -41.089844 34.402344 C -40.042969 66.796875 -39.394531 99.207031 -37.980469 131.585938 C -37.261719 148.128906 -36.144531 164.648438 -36.3125 181.214844 C -36.34375 184.476562 -35.878906 187.808594 -37.894531 192.5 Z M -247.785156 435.222656 C -268.683594 437.980469 -289.679688 438.28125 -310.675781 438.101562 C -334.066406 437.898438 -357.402344 438.878906 -380.714844 440.5 C -383.773438 440.710938 -389.210938 439.546875 -389.101562 443.195312 C -388.976562 447.320312 -383.53125 446.34375 -380.25 446.183594 C -364.691406 445.425781 -349.113281 444.765625 -333.609375 443.371094 C -307.464844 441.015625 -281.175781 443.226562 -255.078125 440.550781 C -245.867188 439.605469 -236.371094 440.234375 -227.546875 436.265625 C -234.335938 434.214844 -241.148438 434.347656 -247.785156 435.222656 Z M 139.878906 221.21875 C 165.792969 188.628906 193.84375 157.921875 222.054688 127.347656 C 224.917969 124.242188 227.203125 120.597656 229.667969 117.140625 C 230.378906 116.140625 230.578125 114.757812 229.320312 114.070312 C 228.640625 113.695312 227.335938 113.769531 226.675781 114.203125 C 225.328125 115.089844 224.140625 116.277344 223.027344 117.46875 C 208.835938 132.679688 195.128906 148.300781 181.957031 164.410156 C 166.84375 182.886719 151.359375 201.054688 135.378906 218.796875 C 131.757812 222.820312 127.671875 226.863281 126.511719 233.625 C 132.804688 230.492188 136.308594 225.707031 139.878906 221.21875 Z M -301.53125 168.707031 C -300.386719 170.710938 -298.808594 172.578125 -297.0625 174.101562 C -262.046875 204.675781 -226.457031 234.617188 -193.644531 267.640625 C -191.433594 269.863281 -188.292969 275.011719 -185.441406 271.929688 C -182.613281 268.875 -188.078125 266.316406 -190.347656 264.0625 C -222.164062 232.425781 -258.261719 205.421875 -289.15625 172.769531 C -291.246094 170.5625 -293.863281 168.847656 -296.292969 166.972656 C -297.207031 166.269531 -298.277344 165.773438 -299.027344 165.328125 C -301.550781 165.585938 -302.570312 166.898438 -301.53125 168.707031 Z M 10.335938 634.628906 C 11.515625 649.226562 13.125 663.792969 14.164062 678.398438 C 15.925781 703.128906 17.292969 727.882812 18.996094 752.617188 C 19.625 761.804688 20.644531 770.96875 21.699219 780.117188 C 21.925781 782.070312 22.285156 785.234375 24.792969 784.953125 C 27.566406 784.648438 26.683594 781.699219 26.453125 779.644531 C 25.742188 773.3125 25.0625 766.980469 24.265625 760.664062 C 19.953125 726.414062 20.972656 691.804688 17.175781 657.523438 C 16.019531 647.097656 16.46875 636.402344 12.171875 625.257812 C 9.300781 629.054688 10.121094 631.972656 10.335938 634.628906 Z M 164.410156 549.253906 C 178.414062 563.074219 195.246094 573.496094 209.585938 586.910156 C 230.300781 606.28125 251.003906 625.660156 271.746094 645.003906 C 273.457031 646.601562 275.332031 648.066406 277.296875 649.339844 C 278.378906 650.039062 279.886719 651.125 281.101562 649.664062 C 282.546875 647.933594 281.15625 646.621094 279.984375 645.4375 C 279.320312 644.769531 278.507812 644.25 277.828125 643.59375 C 246.082031 612.8125 211.855469 584.800781 179.019531 555.234375 C 173.308594 550.09375 167.226562 545.296875 158.65625 540.796875 C 159.902344 545.851562 162.460938 547.332031 164.410156 549.253906 Z M 211.207031 382.128906 C 242.804688 380.671875 274.40625 379.375 305.984375 377.652344 C 323.671875 376.6875 341.433594 377.800781 359.050781 375.582031 C 361.71875 375.246094 366.609375 376.824219 366.339844 372.574219 C 366.148438 369.613281 361.476562 370.917969 358.917969 371.113281 C 321.710938 373.9375 284.464844 375.28125 247.144531 375.742188 C 233.171875 375.914062 218.867188 376.472656 205.09375 382.140625 C 207.132812 382.140625 209.175781 382.222656 211.207031 382.128906 Z M 91.425781 184.695312 C 107.648438 151.914062 125.527344 120.015625 142.785156 87.789062 C 144.238281 85.078125 147.328125 80.957031 144.050781 79.089844 C 141.042969 77.382812 139.613281 82.304688 138.222656 84.75 C 120.046875 116.730469 106.0625 150.945312 86.304688 182.097656 C 84.132812 185.519531 82.320312 189.472656 83.015625 194.609375 C 87.253906 191.984375 89.582031 188.425781 91.425781 184.695312 Z M -251.308594 700.332031 C -248.953125 699.898438 -247.617188 698.199219 -246.335938 696.566406 C -218.953125 661.5625 -188.625 629.089844 -159.589844 595.507812 C -155.960938 591.308594 -152.675781 586.875 -150.3125 580.792969 C -162.261719 588.535156 -250.945312 693.742188 -251.308594 700.332031 Z M -131.113281 76.796875 C -124.351562 106 -115.308594 134.640625 -109.714844 164.144531 C -108.53125 170.378906 -106.457031 176.457031 -104.59375 182.542969 C -104.148438 184.003906 -103.175781 185.992188 -101.109375 185.183594 C -99.566406 184.582031 -99.96875 182.722656 -100.28125 181.394531 C -101.6875 175.421875 -103.152344 169.464844 -104.683594 163.523438 C -112.226562 134.257812 -117.289062 104.382812 -126.191406 75.453125 C -127.28125 71.917969 -127.753906 68.039062 -131.457031 64.550781 C -133.554688 69.253906 -131.96875 73.09375 -131.113281 76.796875 Z M -162.714844 210.332031 C -182.019531 182.8125 -198.730469 153.664062 -216.53125 125.207031 C -217.773438 123.222656 -219.34375 121.414062 -220.9375 119.6875 C -221.890625 118.65625 -223.367188 117.726562 -224.691406 118.691406 C -226.0625 119.6875 -225.480469 121.308594 -224.796875 122.5625 C -222.421875 126.917969 -220.304688 131.46875 -217.472656 135.519531 C -201.074219 158.984375 -185.578125 183.023438 -171.015625 207.675781 C -167.28125 214 -162.417969 219.492188 -155.667969 223.726562 C -157.992188 219.242188 -159.84375 214.429688 -162.714844 210.332031 Z M 76.046875 636.34375 C 77.695312 641.511719 79.671875 646.574219 81.542969 651.664062 C 91.640625 679.132812 96.710938 708.179688 107.757812 735.34375 C 108.988281 738.378906 109.175781 744.28125 113.023438 743.066406 C 116.746094 741.890625 113.753906 736.792969 112.777344 733.746094 C 108.03125 718.925781 102.785156 704.265625 98.003906 689.453125 C 92.210938 671.503906 86.792969 653.429688 81.011719 635.472656 C 79.980469 632.273438 79.320312 628.554688 74.726562 626.0625 C 73.808594 630.234375 75.085938 633.332031 76.046875 636.34375 Z M 185.523438 263.214844 C 212.070312 244.816406 238.550781 226.320312 265.023438 207.820312 C 266.175781 207.019531 267.230469 206.03125 268.160156 204.976562 C 269.386719 203.578125 271.054688 201.898438 269.203125 200.117188 C 267.707031 198.675781 266.085938 200.234375 264.828125 201.132812 C 259.644531 204.832031 254.582031 208.695312 249.414062 212.414062 C 227.410156 228.261719 204.378906 242.664062 183.054688 259.464844 C 180.953125 261.117188 178.042969 262.292969 177.871094 265.78125 C 181.1875 267.007812 183.363281 264.714844 185.523438 263.214844 Z M -234.980469 303.691406 C -259.457031 292.003906 -284.863281 282.367188 -309.019531 269.980469 C -315.929688 266.4375 -322.390625 261.9375 -330.09375 260.085938 C -331.808594 259.675781 -333.886719 258.203125 -334.871094 260.925781 C -335.566406 262.863281 -333.894531 263.949219 -332.511719 264.804688 C -330.917969 265.789062 -329.15625 266.507812 -327.484375 267.371094 C -314.074219 274.3125 -300.28125 280.339844 -286.039062 285.398438 C -268.878906 291.496094 -253.226562 300.945312 -236.519531 308.054688 C -233.644531 309.277344 -230.84375 311.523438 -226.414062 309.652344 C -228.878906 306.09375 -232.085938 305.070312 -234.980469 303.691406 Z M 130.25 599.390625 C 151.902344 629.46875 173.003906 658.777344 194.101562 688.085938 C 195.9375 677.972656 139.363281 600.316406 130.25 599.390625 Z M 221.1875 323.871094 C 254.25 312.574219 286.152344 298.144531 319.410156 287.359375 C 321.851562 286.566406 326.273438 285.746094 325.042969 282.429688 C 323.667969 278.726562 320.097656 281.835938 317.742188 282.589844 C 284.667969 293.1875 253.582031 309.003906 220.558594 319.761719 C 218.273438 320.507812 215.53125 321.160156 214.480469 324.53125 C 217.304688 325.714844 219.285156 324.519531 221.1875 323.871094 Z M -247.386719 493.75 C -277.414062 505.636719 -308.121094 515.632812 -338.515625 526.496094 C -342.0625 527.761719 -345.980469 529.074219 -348.460938 534.953125 C -310.066406 524.039062 -275.492188 507.644531 -239.804688 494.023438 C -242.675781 491.921875 -245.152344 492.863281 -247.386719 493.75 Z M 308.867188 549.445312 C 278.082031 535.753906 247.28125 522.097656 216.445312 508.515625 C 214.03125 507.453125 210.257812 504.832031 208.992188 507.585938 C 207.597656 510.632812 212.359375 511.042969 214.472656 512.539062 C 215.417969 513.207031 216.574219 513.589844 217.664062 514.039062 C 242.949219 524.449219 267.785156 535.867188 292.488281 547.582031 C 298.230469 550.304688 304.15625 552.644531 310.050781 555.023438 C 311.691406 555.683594 313.773438 556.558594 314.375 553.585938 C 313.382812 551.015625 310.953125 550.371094 308.867188 549.445312 Z M 47.070312 213.582031 C 54.269531 190.128906 62.390625 167.003906 71.066406 144.054688 C 73.476562 137.675781 75.226562 131.035156 77.058594 124.453125 C 77.578125 122.59375 78.851562 119.722656 76.109375 118.917969 C 73.921875 118.273438 73.71875 121.28125 72.785156 122.78125 C 72.417969 123.371094 72.265625 124.09375 71.996094 124.75 C 59.996094 153.765625 53.84375 184.765625 41.921875 213.8125 C 40.945312 216.1875 40.632812 218.839844 41.996094 222.242188 C 45.839844 220.050781 46.175781 216.488281 47.070312 213.582031 Z M 26.472656 160.875 C 31.550781 137.136719 36.460938 113.363281 41.371094 89.585938 C 43.277344 80.347656 45.140625 71.097656 46.820312 61.816406 C 47.171875 59.871094 47.546875 56.929688 44.863281 56.496094 C 42.566406 56.125 42.246094 58.992188 41.824219 60.648438 C 40.082031 67.496094 38.242188 74.355469 37.117188 81.324219 C 34.082031 100.167969 31.921875 119.140625 27.320312 137.746094 C 24.8125 147.890625 21.195312 157.980469 21.769531 169.660156 C 26.1875 167.121094 25.875 163.671875 26.472656 160.875 Z M -210.480469 347.042969 C -230.164062 341.269531 -249.398438 334.222656 -268.621094 327.113281 C -275.238281 324.664062 -282.109375 322.902344 -288.867188 320.839844 C -290.566406 320.320312 -292.335938 320.242188 -293.125 322.117188 C -293.953125 324.09375 -292.390625 325.265625 -290.886719 325.921875 C -287.875 327.234375 -284.78125 328.390625 -281.660156 329.425781 C -258.203125 337.226562 -234.105469 343.011719 -211.074219 352.183594 C -206.6875 353.929688 -202.054688 356.066406 -196.214844 354.96875 C -200.179688 349.96875 -205.46875 348.515625 -210.480469 347.042969 Z M -281.261719 613.023438 C -255.363281 594.082031 -229.460938 575.152344 -203.648438 556.097656 C -201.445312 554.472656 -196.878906 552.78125 -199.132812 549.566406 C -200.640625 547.421875 -204.089844 550.757812 -206.222656 552.296875 C -230.527344 569.824219 -254.789062 587.414062 -278.964844 605.117188 C -282.511719 607.714844 -285.558594 610.992188 -289.492188 614.546875 C -285.238281 616.515625 -283.285156 614.503906 -281.261719 613.023438 Z M 161.117188 313.910156 C 182.238281 303.890625 203.308594 293.753906 224.339844 283.539062 C 230.710938 280.445312 237.003906 277.152344 243.148438 273.636719 C 245.449219 272.320312 249.46875 270.359375 247.917969 267.640625 C 246.339844 264.882812 242.851562 267.761719 240.621094 268.933594 C 216.363281 281.679688 192.0625 294.335938 167.375 306.25 C 162.613281 308.546875 157.414062 310.46875 153.484375 315.425781 C 156.992188 316.359375 159.105469 314.863281 161.117188 313.910156 Z M -109.820312 245.816406 C -108.304688 242.730469 -110.347656 240.324219 -111.480469 237.9375 C -124.570312 210.40625 -136.71875 182.480469 -147.609375 154.003906 C -148.835938 150.792969 -150.195312 147.410156 -153.945312 145.914062 C -150.953125 165.472656 -117.847656 240.46875 -109.820312 245.816406 Z M -250.574219 372.359375 C -266.238281 370.21875 -281.96875 368.546875 -297.511719 365.523438 C -312.566406 362.601562 -327.378906 358.320312 -342.726562 357.078125 C -345.507812 356.851562 -350.503906 355.3125 -350.863281 358.585938 C -351.292969 362.507812 -346.117188 361.953125 -343.167969 362.429688 C -317.546875 366.585938 -291.910156 370.648438 -266.25 374.578125 C -258.25 375.800781 -250.21875 377.472656 -240.515625 376.066406 C -244.511719 373.09375 -247.523438 372.777344 -250.574219 372.359375 Z M -48.070312 647.957031 C -49.945312 658.148438 -51.625 668.382812 -53.226562 678.621094 C -56.46875 699.339844 -59.667969 720.066406 -62.714844 740.816406 C -63.128906 743.640625 -64.609375 748.402344 -61.132812 748.886719 C -57.042969 749.457031 -58.070312 744.527344 -57.808594 741.777344 C -55.265625 715.007812 -51.582031 688.441406 -45.71875 662.15625 C -44.082031 654.816406 -41.972656 647.230469 -43.144531 638.132812 C -47.3125 641.363281 -47.496094 644.84375 -48.070312 647.957031 Z M 228.710938 443.433594 C 236.871094 444.652344 245.0625 445.699219 253.183594 447.140625 C 276.394531 451.25 299.570312 455.550781 322.777344 459.691406 C 325.410156 460.164062 329.769531 461.710938 330.25 458.636719 C 330.851562 454.796875 326.039062 455.382812 323.320312 454.734375 C 293.203125 447.539062 262.257812 445.621094 231.796875 440.574219 C 228.535156 440.03125 225.050781 438.660156 221.324219 440.726562 C 223.667969 443.128906 226.261719 443.066406 228.710938 443.433594 Z M -61.394531 590.304688 C -66.546875 593.363281 -67.214844 596.765625 -68.101562 599.722656 C -75.96875 625.976562 -84.875 651.867188 -94.773438 677.429688 C -96.265625 681.285156 -97.308594 685.484375 -94.734375 689.953125 C -80 658.570312 -72.105469 625.027344 -61.394531 590.304688 Z M -161.289062 731.261719 C -160.109375 731.828125 -158.929688 732.398438 -157.75 732.964844 C -140.742188 698.960938 -123.824219 664.910156 -109.539062 629.59375 C -129.007812 662.410156 -144.808594 697 -161.289062 731.261719 Z M 174.363281 463.300781 C 203.320312 470.847656 231.648438 480.425781 260.007812 489.902344 C 262.625 490.78125 265.734375 491.507812 270.003906 488.839844 C 238.164062 474.351562 205.496094 468.140625 172.785156 462.1875 C 173.308594 462.566406 173.777344 463.148438 174.363281 463.300781 Z M 86.277344 582.882812 C 99.917969 609.550781 112.976562 636.5 125.558594 663.683594 C 126.433594 665.570312 127.386719 668.140625 131.765625 667.640625 C 118.632812 636.546875 104.792969 606.433594 86.480469 577.808594 C 84.96875 580.332031 85.636719 581.636719 86.277344 582.882812 Z M -194.894531 508.210938 C -209.355469 516.707031 -224.222656 524.363281 -239.632812 531.003906 C -246.992188 534.175781 -254.285156 537.566406 -261.332031 541.363281 C -264.085938 542.847656 -269.746094 544.3125 -267.753906 548.035156 C -265.761719 551.75 -261.582031 547.828125 -258.597656 546.464844 C -235.820312 536.050781 -214.976562 522.027344 -192.613281 510.820312 C -188.980469 509 -185.148438 507.199219 -181.667969 503.109375 C -187.308594 503.613281 -191.097656 505.984375 -194.894531 508.210938 Z M -69.769531 179 C -67.882812 173.792969 -76.59375 120.8125 -80.339844 115.019531 C -83.785156 137.410156 -75.125 157.917969 -69.769531 179 Z M -215.085938 284.582031 C -225.648438 276.613281 -236.238281 268.679688 -246.832031 260.757812 C -250.429688 258.066406 -254.058594 255.421875 -257.707031 252.804688 C -259.085938 251.8125 -260.746094 250.882812 -262.128906 252.460938 C -263.472656 253.992188 -262.53125 255.589844 -261.304688 256.824219 C -259.972656 258.160156 -258.648438 259.558594 -257.105469 260.621094 C -243.886719 269.75 -230.636719 278.839844 -217.335938 287.851562 C -215.875 288.84375 -214.285156 290.164062 -211.765625 289.1875 C -211.667969 286.402344 -213.65625 285.664062 -215.085938 284.582031 Z M 144.011719 160.390625 C 145.375 158.519531 148.09375 155.539062 145.140625 153.703125 C 142.28125 151.929688 140.910156 155.761719 139.449219 157.628906 C 128.996094 171.019531 120.128906 185.492188 110.898438 199.71875 C 109.683594 201.59375 107.992188 203.460938 108.875 207.929688 C 121.15625 191.359375 132.671875 175.9375 144.011719 160.390625 Z M 45.71875 650.816406 C 47.171875 664.355469 49.164062 677.839844 51.0625 691.332031 C 51.308594 693.058594 51.757812 695.585938 54.183594 695.199219 C 56.292969 694.863281 55.601562 692.488281 55.550781 690.988281 C 54.910156 671.421875 49.5 652.644531 45.984375 633.542969 C 42.695312 639.453125 45.113281 645.175781 45.71875 650.816406 Z M 220.382812 350.269531 C 238.699219 346.644531 257.410156 346.039062 275.800781 343.027344 C 279.636719 342.398438 286.597656 342.90625 285.890625 338.558594 C 285.246094 334.601562 278.546875 337.101562 274.558594 337.5 C 256.679688 339.285156 239.621094 345.664062 221.65625 347.054688 C 220.125 347.175781 218.335938 347.375 217.90625 349.355469 C 218.527344 350.5 219.480469 350.445312 220.382812 350.269531 Z M 236.738281 562.761719 C 238.460938 563.925781 240.953125 566.613281 242.75 563.882812 C 244.480469 561.257812 241.210938 559.785156 239.414062 558.625 C 224.394531 548.921875 209.304688 539.328125 194.171875 529.808594 C 192.25 528.601562 190.234375 527.226562 186.757812 528.648438 C 203.40625 540.039062 220.027344 551.464844 236.738281 562.761719 Z M -241.613281 464.527344 C -260.546875 467.953125 -279.480469 471.351562 -298.398438 474.855469 C -299.921875 475.136719 -302.125 475.878906 -301.757812 477.8125 C -301.269531 480.398438 -298.875 479.449219 -297.070312 479.332031 C -285.257812 478.558594 -273.796875 475.890625 -262.453125 472.6875 C -255.328125 470.675781 -248.273438 468.398438 -241.1875 466.242188 C -241.328125 465.671875 -241.472656 465.097656 -241.613281 464.527344 Z M -136.671875 612.238281 C -146.488281 625.78125 -156.894531 638.941406 -164.472656 653.976562 C -165.257812 655.539062 -167.480469 657.542969 -165.371094 658.867188 C -163.070312 660.308594 -161.597656 657.574219 -160.535156 655.941406 C -153.453125 645.085938 -146.378906 634.21875 -139.605469 623.171875 C -136.867188 618.699219 -133.152344 614.625 -131.949219 608.984375 C -134.734375 609.023438 -135.667969 610.851562 -136.671875 612.238281 Z M -258.363281 406.679688 C -274.023438 405.496094 -289.441406 402.136719 -305.234375 402.222656 C -307.355469 402.234375 -310.664062 401.347656 -310.5 405.027344 C -310.359375 408.171875 -307.304688 408 -305.019531 408.15625 C -297.488281 408.664062 -289.953125 409.246094 -282.410156 409.457031 C -274.488281 409.679688 -266.554688 409.507812 -258.625 409.507812 C -258.539062 408.566406 -258.449219 407.625 -258.363281 406.679688 Z M -10.265625 222.792969 C -9.867188 218.621094 -9.382812 214.457031 -9.09375 210.28125 C -8.1875 197.082031 -6.269531 183.933594 -6.917969 170.65625 C -7.027344 168.414062 -6.203125 164.785156 -8.992188 164.601562 C -12.355469 164.382812 -10.980469 168.117188 -11.320312 170.179688 C -13.429688 183.105469 -12.117188 196.152344 -12.535156 209.136719 C -12.679688 213.683594 -12.558594 218.238281 -12.558594 222.785156 C -11.792969 222.789062 -11.027344 222.789062 -10.265625 222.792969 Z M -3.5625 103.234375 C -3.558594 103.003906 -3.632812 102.765625 -3.703125 102.542969 C -4.046875 101.449219 -4.183594 100.109375 -5.71875 100.0625 C -7.121094 100.015625 -7.871094 101.058594 -8.117188 102.207031 C -9.109375 106.804688 -10.335938 111.390625 -10.808594 116.046875 C -11.863281 126.425781 -12.890625 136.867188 -8.644531 147.078125 C -6.050781 132.535156 -3.828125 118.003906 -3.5625 103.234375 Z M 163.453125 589.65625 C 169.746094 596.878906 175.96875 604.160156 182.355469 611.296875 C 186.132812 615.515625 190.105469 619.570312 194.140625 623.546875 C 195.207031 624.597656 196.828125 626.183594 198.417969 624.714844 C 199.972656 623.277344 198.703125 621.5625 197.660156 620.335938 C 187.71875 608.648438 177.230469 597.515625 164.828125 588.398438 C 164.371094 588.820312 163.910156 589.238281 163.453125 589.65625 Z M 172.796875 228.789062 C 179.246094 222.25 186.011719 216.121094 193.660156 210.960938 C 196.953125 208.738281 199.890625 205.960938 202.890625 203.328125 C 204.34375 202.050781 205.664062 200.167969 204.410156 198.402344 C 202.941406 196.324219 201.085938 197.953125 199.488281 198.847656 C 191.925781 203.078125 186.621094 209.851562 180.945312 216.039062 C 176.257812 221.148438 169.089844 223.859375 165.96875 231.613281 C 169.640625 232.261719 171.230469 230.382812 172.796875 228.789062 Z M 272.417969 413.085938 C 276.398438 413.566406 280.40625 413.65625 284.34375 412.667969 C 285.835938 412.289062 288.019531 412.519531 288.078125 410.257812 C 288.140625 407.925781 286.0625 408 284.488281 407.933594 C 269.015625 407.285156 253.539062 405.476562 237.550781 408.742188 C 249.171875 410.195312 260.789062 411.683594 272.417969 413.085938 Z M -222.4375 611.269531 C -223.355469 612.214844 -224.777344 613.527344 -223.574219 614.882812 C -222.074219 616.578125 -220.484375 615.175781 -219.304688 614.117188 C -213.863281 609.238281 -208.382812 604.390625 -203.148438 599.292969 C -197.332031 593.632812 -190.878906 588.472656 -187.671875 580.429688 C -200.304688 589.585938 -211.644531 600.125 -222.4375 611.269531 Z M -235.847656 404.527344 C -237.257812 404.527344 -238.835938 404.925781 -239.011719 406.707031 C -239.183594 408.457031 -237.871094 409.253906 -236.371094 409.402344 C -223.296875 410.695312 -210.234375 411.457031 -197.234375 407.6875 C -209.953125 404.46875 -222.902344 404.519531 -235.847656 404.527344 Z M -15.207031 662.816406 C -15.613281 671.269531 -16.125 679.722656 -16.382812 688.179688 C -16.578125 694.542969 -16.515625 700.914062 -16.410156 707.277344 C -16.386719 708.589844 -15.96875 710.300781 -14.214844 710.410156 C -12.316406 710.53125 -12.046875 708.726562 -11.871094 707.449219 C -9.804688 692.46875 -13.019531 677.738281 -12.71875 662.835938 C -13.550781 662.828125 -14.378906 662.824219 -15.207031 662.816406 Z M -17.054688 597.875 C -17.054688 611.355469 -17.015625 624.839844 -16.871094 638.320312 C -16.847656 640.523438 -17.308594 643.828125 -13.777344 643.480469 C -10.578125 643.164062 -11.121094 639.960938 -11.246094 637.738281 C -11.753906 628.773438 -12.457031 619.816406 -13.089844 610.859375 C -13.480469 605.292969 -13.875 599.730469 -14.3125 593.523438 C -17.332031 595.015625 -17.054688 596.59375 -17.054688 597.875 Z M -141.894531 275.628906 C -150.578125 265.144531 -159.222656 254.628906 -168 244.222656 C -169.074219 242.953125 -170.792969 240.917969 -172.652344 243.042969 C -174.148438 244.75 -172.941406 246.679688 -171.660156 248.117188 C -166.636719 253.746094 -161.753906 259.523438 -156.394531 264.816406 C -152.167969 268.992188 -148.882812 274.320312 -143.308594 277 C -142.835938 276.542969 -142.367188 276.085938 -141.894531 275.628906 Z M 146.683594 573.507812 C 147.90625 574.574219 149.550781 575.640625 150.984375 573.859375 C 152.0625 572.519531 151.191406 571.074219 150.214844 570.089844 C 140.527344 560.359375 130.90625 550.542969 119.203125 543.019531 C 127.214844 554.25 136.3125 564.457031 146.683594 573.507812 Z M -186.441406 228.792969 C -195.410156 218.054688 -204.359375 207.304688 -213.371094 196.605469 C -214.457031 195.3125 -216.101562 194.222656 -217.644531 195.59375 C -219.484375 197.230469 -218.402344 199.054688 -217.09375 200.53125 C -207.921875 210.902344 -198.5 221.027344 -188.109375 230.175781 C -187.550781 229.714844 -186.996094 229.253906 -186.441406 228.792969 Z M 152.265625 248.417969 C 153.207031 247.421875 154.261719 245.933594 152.730469 244.789062 C 151.425781 243.8125 150.050781 244.953125 148.929688 245.761719 C 137.144531 254.25 128.753906 265.976562 119.546875 277.027344 C 131.550781 268.714844 142.261719 258.957031 152.265625 248.417969 Z M 159.191406 344.0625 C 173.382812 340.117188 186.804688 337.226562 198.769531 330.207031 C 190.414062 328.230469 163.179688 337.878906 159.191406 344.0625 Z M 22.835938 187.179688 C 22.988281 185.890625 23.15625 184.15625 21.25 183.816406 C 19.910156 183.578125 19.058594 184.535156 18.746094 185.757812 C 15.792969 197.289062 13.640625 208.914062 14.746094 221.050781 C 20.226562 210.40625 21.484375 198.777344 22.835938 187.179688 Z M -210.324219 314.378906 C -211.570312 313.804688 -213.257812 313.75 -214.015625 315.296875 C -214.707031 316.714844 -214.121094 318.117188 -212.78125 318.929688 C -204.03125 324.257812 -194.898438 328.691406 -184.597656 330.582031 C -192.121094 323.453125 -201.0625 318.648438 -210.324219 314.378906 Z M 68.203125 614.164062 C 68.792969 615.496094 69.476562 617.007812 71.144531 616.515625 C 73.347656 615.871094 72.710938 613.769531 72.320312 612.355469 C 70.453125 605.570312 68.582031 598.773438 66.292969 592.125 C 65.203125 588.96875 64.640625 585.21875 58.898438 582.265625 C 62.671875 593.972656 63.902344 604.460938 68.203125 614.164062 Z M -96.988281 198.6875 C -97.359375 212.183594 -92.878906 224.148438 -86.117188 235.394531 C -88.101562 222.640625 -90.78125 210.109375 -96.988281 198.6875 Z M 223.695312 408.320312 C 207.894531 408.320312 192.761719 408.320312 177.628906 408.320312 C 191.292969 413.164062 217.597656 412.726562 223.695312 408.320312 Z M 40.304688 619.867188 C 40.574219 621.414062 41.332031 623.328125 43.308594 623.28125 C 44.976562 623.242188 45.550781 621.628906 45.324219 620.152344 C 43.730469 609.859375 42.914062 599.367188 37.722656 589.835938 C 37.078125 600.015625 38.558594 609.960938 40.304688 619.867188 Z M 140.570312 295.082031 C 148.804688 289.824219 158.121094 286.445312 165.507812 279.722656 C 166.875 278.480469 168.707031 276.898438 167.207031 274.980469 C 165.757812 273.132812 163.613281 274.207031 162.136719 275.34375 C 154.519531 281.210938 146.992188 287.199219 139.4375 293.144531 C 139.8125 293.789062 140.191406 294.4375 140.570312 295.082031 Z M -63.816406 204.972656 C -64.035156 201.460938 -64.054688 195.0625 -67.210938 195.484375 C -71.179688 196.015625 -67.8125 201.453125 -67.988281 204.714844 C -68.507812 214.214844 -65.65625 223.023438 -61.253906 233.359375 C -60.152344 222.417969 -63.261719 213.816406 -63.816406 204.972656 Z M 158.71875 484.710938 C 169.394531 490.152344 180.046875 495.644531 190.773438 500.988281 C 192.300781 501.75 194.65625 502.980469 195.632812 500.605469 C 196.402344 498.730469 194.085938 497.992188 192.730469 497.1875 C 182.335938 491.015625 170.652344 487.96875 159.785156 482.941406 C 159.429688 483.53125 159.074219 484.121094 158.71875 484.710938 Z M -220.464844 484.203125 C -222.011719 484.800781 -223.871094 485.425781 -222.949219 487.636719 C -222.277344 489.25 -220.507812 489.125 -219.21875 488.742188 C -209.117188 485.777344 -198.84375 483.210938 -189.796875 476.980469 C -200.335938 477.90625 -210.566406 480.390625 -220.464844 484.203125 Z M -173.765625 565.5625 C -174.589844 566.738281 -176.71875 568.058594 -174.679688 569.585938 C -173.113281 570.757812 -171.527344 569.421875 -170.429688 568.171875 C -162.859375 559.554688 -155.335938 550.894531 -147.796875 542.25 C -157.863281 548.585938 -166.964844 555.882812 -173.765625 565.5625 Z M 78.074219 205.898438 C 68.820312 213.949219 64.511719 224.90625 60.75 236.25 C 67.488281 226.734375 76.089844 218.195312 78.074219 205.898438 Z M 172.3125 519.925781 C 173.492188 520.558594 175.109375 521.234375 175.917969 519.457031 C 176.460938 518.253906 175.515625 517.203125 174.5625 516.476562 C 166 509.953125 156.585938 504.886719 146.703125 500.5 C 154.277344 508.363281 162.804688 514.816406 172.3125 519.925781 Z M 118.492188 586.425781 C 119.5625 587.648438 120.972656 589.40625 122.597656 588.445312 C 124.527344 587.300781 123.15625 585.4375 122.242188 584.160156 C 116.214844 575.757812 110.722656 566.9375 102.8125 559.925781 C 107.195312 569.304688 111.644531 578.582031 118.492188 586.425781 Z M -103.484375 608.960938 C -103.976562 610.292969 -104.171875 612.015625 -102.734375 612.785156 C -101.328125 613.542969 -99.882812 612.675781 -99.246094 611.289062 C -95.1875 602.441406 -90.347656 593.90625 -88.363281 584.140625 C -94.957031 591.511719 -100.058594 599.734375 -103.484375 608.960938 Z M -217.761719 458.652344 C -219.546875 459.097656 -221.832031 459.394531 -221.140625 462.042969 C -220.585938 464.167969 -218.441406 463.695312 -216.976562 463.480469 C -208.464844 462.230469 -200.304688 459.703125 -192.410156 456.042969 C -201.25 454.128906 -209.484375 456.585938 -217.761719 458.652344 Z M -193.25 297.636719 C -194.371094 296.816406 -196.109375 296.609375 -196.988281 298.117188 C -197.597656 299.167969 -197.128906 300.472656 -196.148438 301.300781 C -189.179688 307.214844 -181.792969 312.433594 -172.6875 314.757812 C -178.554688 307.707031 -186.078125 302.882812 -193.25 297.636719 Z M -164.898438 524.824219 C -174.273438 528.898438 -182.691406 534.296875 -189.140625 542.433594 C -178.898438 539.492188 -171.472656 532.738281 -164.898438 524.824219 Z M -124.046875 594.976562 C -124.601562 596.082031 -124.765625 597.402344 -123.382812 597.921875 C -122.675781 598.1875 -121.257812 597.96875 -120.851562 597.4375 C -115.246094 590.09375 -109.773438 582.648438 -108.1875 573.128906 C -114.941406 579.398438 -119.953125 586.859375 -124.046875 594.976562 Z M 100.097656 220.867188 C 89.851562 227.546875 85.726562 238.511719 80.535156 248.613281 C 87.257812 239.4375 96.558594 232.113281 100.097656 220.867188 Z M -141.574219 238.714844 C -142.667969 237.359375 -143.808594 234.625 -145.785156 236 C -148.109375 237.621094 -145.960938 239.882812 -144.878906 241.507812 C -139.941406 248.9375 -134.726562 256.164062 -127.910156 262.226562 C -131.683594 253.898438 -135.839844 245.84375 -141.574219 238.714844 Z M 194.8125 356.175781 C 196.324219 355.65625 199.175781 355.558594 198.503906 352.953125 C 197.984375 350.9375 195.792969 351.773438 194.214844 351.988281 C 185.152344 353.21875 176.703125 356.449219 168.398438 360.101562 C 177.394531 359.472656 186.324219 359.082031 194.8125 356.175781 Z M 101.847656 262.59375 C 110.136719 257.078125 116.9375 250.347656 120.085938 240.632812 C 112.230469 246.503906 105.570312 253.347656 101.847656 262.59375 Z M 176.160156 435.089844 C 186.195312 438.136719 196.277344 440.441406 206.796875 437.785156 C 196.714844 435.191406 186.613281 432.480469 176.160156 435.089844 Z M -225.035156 374.105469 C -226.75 374.066406 -228.5 374.640625 -229.027344 376.429688 C -229.503906 378.03125 -228.316406 379.386719 -226.8125 379.371094 C -219.199219 379.292969 -211.632812 381.792969 -203.929688 379.566406 C -210.789062 376.707031 -217.652344 374.273438 -225.035156 374.105469 Z M 7.371094 613.722656 C 7.605469 614.933594 8.300781 616.082031 9.578125 615.933594 C 10.183594 615.859375 11.101562 614.597656 11.105469 613.871094 C 11.132812 606.550781 12.0625 599.082031 8.035156 592.316406 C 5.113281 599.515625 5.996094 606.617188 7.371094 613.722656 Z M -43.796875 623.808594 C -43.839844 625.296875 -44.382812 627.628906 -42.011719 627.636719 C -40.066406 627.640625 -39.917969 625.503906 -39.5625 623.886719 C -37.53125 614.695312 -38.777344 605.28125 -37.835938 595.96875 C -40.585938 605.09375 -43.539062 614.160156 -43.796875 623.808594 Z M 149.828125 538.757812 C 150.972656 539.472656 152.570312 539.886719 153.421875 538.140625 C 154.183594 536.574219 153.214844 535.429688 152.074219 534.558594 C 146.566406 530.351562 140.675781 526.804688 133.785156 524.789062 C 137.894531 530.964844 143.773438 534.980469 149.828125 538.757812 Z M -215.480469 435.328125 C -216.164062 435.964844 -216.707031 436.734375 -216.234375 437.765625 C -215.660156 439.019531 -214.519531 439.242188 -213.332031 439.253906 C -206.75 439.335938 -200.695312 437.449219 -194.109375 434.757812 C -198.3125 432.402344 -213.136719 433.152344 -215.480469 435.328125 Z M -143.523438 568.347656 C -144.171875 569.371094 -144.515625 570.535156 -143.457031 571.550781 C -142.34375 572.617188 -141.136719 572.105469 -140.363281 571.25 C -135.578125 565.972656 -130.363281 560.917969 -129.644531 553.097656 C -135.417969 557.199219 -139.796875 562.480469 -143.523438 568.347656 Z M -172.203125 279.074219 C -173.3125 278.28125 -174.835938 277.546875 -175.878906 279.15625 C -176.597656 280.261719 -176.101562 281.570312 -175.097656 282.285156 C -169.117188 286.511719 -164.539062 292.828125 -156.773438 294.382812 C -160.71875 287.894531 -166.300781 283.304688 -172.203125 279.074219 Z M 194.570312 382.4375 C 185.699219 380.6875 179.109375 381.992188 172.785156 385.332031 C 179.773438 386.984375 186.605469 387.574219 194.570312 382.4375 Z M -35.554688 206.042969 C -35.636719 205.316406 -36.539062 204.449219 -37.273438 204.089844 C -38.253906 203.613281 -39.316406 204.382812 -39.371094 205.285156 C -39.773438 211.84375 -40.867188 218.542969 -36.238281 226.328125 C -33.871094 218.371094 -34.847656 212.183594 -35.554688 206.042969 Z M -35.554688 206.042969 " fill-opacity="1" fill-rule="nonzero"/><path fill="#000000" d="M -37.894531 192.5 C -40.265625 186.253906 -40.746094 181.226562 -41.125 176.125 C -42.484375 157.695312 -42.765625 139.246094 -42.367188 120.785156 C -41.863281 97.289062 -46.71875 74.164062 -47.140625 50.746094 C -47.277344 43.1875 -46.917969 35.625 -46.730469 28.0625 C -46.703125 26.945312 -46.804688 25.511719 -45.324219 25.160156 C -43.511719 24.730469 -42.761719 26.121094 -42.40625 27.488281 C -41.820312 29.757812 -41.167969 32.082031 -41.089844 34.402344 C -40.042969 66.796875 -39.394531 99.207031 -37.980469 131.585938 C -37.261719 148.128906 -36.144531 164.648438 -36.3125 181.214844 C -36.34375 184.476562 -35.878906 187.808594 -37.894531 192.5 Z M -247.785156 435.222656 C -268.683594 437.980469 -289.679688 438.28125 -310.675781 438.101562 C -334.066406 437.898438 -357.402344 438.878906 -380.714844 440.5 C -383.773438 440.710938 -389.210938 439.546875 -389.101562 443.195312 C -388.976562 447.320312 -383.53125 446.34375 -380.25 446.183594 C -364.691406 445.425781 -349.113281 444.765625 -333.609375 443.371094 C -307.464844 441.015625 -281.175781 443.226562 -255.078125 440.550781 C -245.867188 439.605469 -236.371094 440.234375 -227.546875 436.265625 C -234.335938 434.214844 -241.148438 434.347656 -247.785156 435.222656 Z M 139.878906 221.21875 C 165.792969 188.628906 193.84375 157.921875 222.054688 127.347656 C 224.917969 124.242188 227.203125 120.597656 229.667969 117.140625 C 230.378906 116.140625 230.578125 114.757812 229.320312 114.070312 C 228.640625 113.695312 227.335938 113.769531 226.675781 114.203125 C 225.328125 115.089844 224.140625 116.277344 223.027344 117.46875 C 208.835938 132.679688 195.128906 148.300781 181.957031 164.410156 C 166.84375 182.886719 151.359375 201.054688 135.378906 218.796875 C 131.757812 222.820312 127.671875 226.863281 126.511719 233.625 C 132.804688 230.492188 136.308594 225.707031 139.878906 221.21875 Z M -301.53125 168.707031 C -300.386719 170.710938 -298.808594 172.578125 -297.0625 174.101562 C -262.046875 204.675781 -226.457031 234.617188 -193.644531 267.640625 C -191.433594 269.863281 -188.292969 275.011719 -185.441406 271.929688 C -182.613281 268.875 -188.078125 266.316406 -190.347656 264.0625 C -222.164062 232.425781 -258.261719 205.421875 -289.15625 172.769531 C -291.246094 170.5625 -293.863281 168.847656 -296.292969 166.972656 C -297.207031 166.269531 -298.277344 165.773438 -299.027344 165.328125 C -301.550781 165.585938 -302.570312 166.898438 -301.53125 168.707031 Z M 10.335938 634.628906 C 11.515625 649.226562 13.125 663.792969 14.164062 678.398438 C 15.925781 703.128906 17.292969 727.882812 18.996094 752.617188 C 19.625 761.804688 20.644531 770.96875 21.699219 780.117188 C 21.925781 782.070312 22.285156 785.234375 24.792969 784.953125 C 27.566406 784.648438 26.683594 781.699219 26.453125 779.644531 C 25.742188 773.3125 25.0625 766.980469 24.265625 760.664062 C 19.953125 726.414062 20.972656 691.804688 17.175781 657.523438 C 16.019531 647.097656 16.46875 636.402344 12.171875 625.257812 C 9.300781 629.054688 10.121094 631.972656 10.335938 634.628906 Z M 164.410156 549.253906 C 178.414062 563.074219 195.246094 573.496094 209.585938 586.910156 C 230.300781 606.28125 251.003906 625.660156 271.746094 645.003906 C 273.457031 646.601562 275.332031 648.066406 277.296875 649.339844 C 278.378906 650.039062 279.886719 651.125 281.101562 649.664062 C 282.546875 647.933594 281.15625 646.621094 279.984375 645.4375 C 279.320312 644.769531 278.507812 644.25 277.828125 643.59375 C 246.082031 612.8125 211.855469 584.800781 179.019531 555.234375 C 173.308594 550.09375 167.226562 545.296875 158.65625 540.796875 C 159.902344 545.851562 162.460938 547.332031 164.410156 549.253906 Z M 211.207031 382.128906 C 242.804688 380.671875 274.40625 379.375 305.984375 377.652344 C 323.671875 376.6875 341.433594 377.800781 359.050781 375.582031 C 361.71875 375.246094 366.609375 376.824219 366.339844 372.574219 C 366.148438 369.613281 361.476562 370.917969 358.917969 371.113281 C 321.710938 373.9375 284.464844 375.28125 247.144531 375.742188 C 233.171875 375.914062 218.867188 376.472656 205.09375 382.140625 C 207.132812 382.140625 209.175781 382.222656 211.207031 382.128906 Z M 91.425781 184.695312 C 107.648438 151.914062 125.527344 120.015625 142.785156 87.789062 C 144.238281 85.078125 147.328125 80.957031 144.050781 79.089844 C 141.042969 77.382812 139.613281 82.304688 138.222656 84.75 C 120.046875 116.730469 106.0625 150.945312 86.304688 182.097656 C 84.132812 185.519531 82.320312 189.472656 83.015625 194.609375 C 87.253906 191.984375 89.582031 188.425781 91.425781 184.695312 Z M -251.308594 700.332031 C -248.953125 699.898438 -247.617188 698.199219 -246.335938 696.566406 C -218.953125 661.5625 -188.625 629.089844 -159.589844 595.507812 C -155.960938 591.308594 -152.675781 586.875 -150.3125 580.792969 C -162.261719 588.535156 -250.945312 693.742188 -251.308594 700.332031 Z M -131.113281 76.796875 C -124.351562 106 -115.308594 134.640625 -109.714844 164.144531 C -108.53125 170.378906 -106.457031 176.457031 -104.59375 182.542969 C -104.148438 184.003906 -103.175781 185.992188 -101.109375 185.183594 C -99.566406 184.582031 -99.96875 182.722656 -100.28125 181.394531 C -101.6875 175.421875 -103.152344 169.464844 -104.683594 163.523438 C -112.226562 134.257812 -117.289062 104.382812 -126.191406 75.453125 C -127.28125 71.917969 -127.753906 68.039062 -131.457031 64.550781 C -133.554688 69.253906 -131.96875 73.09375 -131.113281 76.796875 Z M -162.714844 210.332031 C -182.019531 182.8125 -198.730469 153.664062 -216.53125 125.207031 C -217.773438 123.222656 -219.34375 121.414062 -220.9375 119.6875 C -221.890625 118.65625 -223.367188 117.726562 -224.691406 118.691406 C -226.0625 119.6875 -225.480469 121.308594 -224.796875 122.5625 C -222.421875 126.917969 -220.304688 131.46875 -217.472656 135.519531 C -201.074219 158.984375 -185.578125 183.023438 -171.015625 207.675781 C -167.28125 214 -162.417969 219.492188 -155.667969 223.726562 C -157.992188 219.242188 -159.84375 214.429688 -162.714844 210.332031 Z M 76.046875 636.34375 C 77.695312 641.511719 79.671875 646.574219 81.542969 651.664062 C 91.640625 679.132812 96.710938 708.179688 107.757812 735.34375 C 108.988281 738.378906 109.175781 744.28125 113.023438 743.066406 C 116.746094 741.890625 113.753906 736.792969 112.777344 733.746094 C 108.03125 718.925781 102.785156 704.265625 98.003906 689.453125 C 92.210938 671.503906 86.792969 653.429688 81.011719 635.472656 C 79.980469 632.273438 79.320312 628.554688 74.726562 626.0625 C 73.808594 630.234375 75.085938 633.332031 76.046875 636.34375 Z M 185.523438 263.214844 C 212.070312 244.816406 238.550781 226.320312 265.023438 207.820312 C 266.175781 207.019531 267.230469 206.03125 268.160156 204.976562 C 269.386719 203.578125 271.054688 201.898438 269.203125 200.117188 C 267.707031 198.675781 266.085938 200.234375 264.828125 201.132812 C 259.644531 204.832031 254.582031 208.695312 249.414062 212.414062 C 227.410156 228.261719 204.378906 242.664062 183.054688 259.464844 C 180.953125 261.117188 178.042969 262.292969 177.871094 265.78125 C 181.1875 267.007812 183.363281 264.714844 185.523438 263.214844 Z M -234.980469 303.691406 C -259.457031 292.003906 -284.863281 282.367188 -309.019531 269.980469 C -315.929688 266.4375 -322.390625 261.9375 -330.09375 260.085938 C -331.808594 259.675781 -333.886719 258.203125 -334.871094 260.925781 C -335.566406 262.863281 -333.894531 263.949219 -332.511719 264.804688 C -330.917969 265.789062 -329.15625 266.507812 -327.484375 267.371094 C -314.074219 274.3125 -300.28125 280.339844 -286.039062 285.398438 C -268.878906 291.496094 -253.226562 300.945312 -236.519531 308.054688 C -233.644531 309.277344 -230.84375 311.523438 -226.414062 309.652344 C -228.878906 306.09375 -232.085938 305.070312 -234.980469 303.691406 Z M 130.25 599.390625 C 151.902344 629.46875 173.003906 658.777344 194.101562 688.085938 C 195.9375 677.972656 139.363281 600.316406 130.25 599.390625 Z M 221.1875 323.871094 C 254.25 312.574219 286.152344 298.144531 319.410156 287.359375 C 321.851562 286.566406 326.273438 285.746094 325.042969 282.429688 C 323.667969 278.726562 320.097656 281.835938 317.742188 282.589844 C 284.667969 293.1875 253.582031 309.003906 220.558594 319.761719 C 218.273438 320.507812 215.53125 321.160156 214.480469 324.53125 C 217.304688 325.714844 219.285156 324.519531 221.1875 323.871094 Z M -247.386719 493.75 C -277.414062 505.636719 -308.121094 515.632812 -338.515625 526.496094 C -342.0625 527.761719 -345.980469 529.074219 -348.460938 534.953125 C -310.066406 524.039062 -275.492188 507.644531 -239.804688 494.023438 C -242.675781 491.921875 -245.152344 492.863281 -247.386719 493.75 Z M 308.867188 549.445312 C 278.082031 535.753906 247.28125 522.097656 216.445312 508.515625 C 214.03125 507.453125 210.257812 504.832031 208.992188 507.585938 C 207.597656 510.632812 212.359375 511.042969 214.472656 512.539062 C 215.417969 513.207031 216.574219 513.589844 217.664062 514.039062 C 242.949219 524.449219 267.785156 535.867188 292.488281 547.582031 C 298.230469 550.304688 304.15625 552.644531 310.050781 555.023438 C 311.691406 555.683594 313.773438 556.558594 314.375 553.585938 C 313.382812 551.015625 310.953125 550.371094 308.867188 549.445312 Z M 47.070312 213.582031 C 54.269531 190.128906 62.390625 167.003906 71.066406 144.054688 C 73.476562 137.675781 75.226562 131.035156 77.058594 124.453125 C 77.578125 122.59375 78.851562 119.722656 76.109375 118.917969 C 73.921875 118.273438 73.71875 121.28125 72.785156 122.78125 C 72.417969 123.371094 72.265625 124.09375 71.996094 124.75 C 59.996094 153.765625 53.84375 184.765625 41.921875 213.8125 C 40.945312 216.1875 40.632812 218.839844 41.996094 222.242188 C 45.839844 220.050781 46.175781 216.488281 47.070312 213.582031 Z M 26.472656 160.875 C 31.550781 137.136719 36.460938 113.363281 41.371094 89.585938 C 43.277344 80.347656 45.140625 71.097656 46.820312 61.816406 C 47.171875 59.871094 47.546875 56.929688 44.863281 56.496094 C 42.566406 56.125 42.246094 58.992188 41.824219 60.648438 C 40.082031 67.496094 38.242188 74.355469 37.117188 81.324219 C 34.082031 100.167969 31.921875 119.140625 27.320312 137.746094 C 24.8125 147.890625 21.195312 157.980469 21.769531 169.660156 C 26.1875 167.121094 25.875 163.671875 26.472656 160.875 Z M -210.480469 347.042969 C -230.164062 341.269531 -249.398438 334.222656 -268.621094 327.113281 C -275.238281 324.664062 -282.109375 322.902344 -288.867188 320.839844 C -290.566406 320.320312 -292.335938 320.242188 -293.125 322.117188 C -293.953125 324.09375 -292.390625 325.265625 -290.886719 325.921875 C -287.875 327.234375 -284.78125 328.390625 -281.660156 329.425781 C -258.203125 337.226562 -234.105469 343.011719 -211.074219 352.183594 C -206.6875 353.929688 -202.054688 356.066406 -196.214844 354.96875 C -200.179688 349.96875 -205.46875 348.515625 -210.480469 347.042969 Z M -281.261719 613.023438 C -255.363281 594.082031 -229.460938 575.152344 -203.648438 556.097656 C -201.445312 554.472656 -196.878906 552.78125 -199.132812 549.566406 C -200.640625 547.421875 -204.089844 550.757812 -206.222656 552.296875 C -230.527344 569.824219 -254.789062 587.414062 -278.964844 605.117188 C -282.511719 607.714844 -285.558594 610.992188 -289.492188 614.546875 C -285.238281 616.515625 -283.285156 614.503906 -281.261719 613.023438 Z M 161.117188 313.910156 C 182.238281 303.890625 203.308594 293.753906 224.339844 283.539062 C 230.710938 280.445312 237.003906 277.152344 243.148438 273.636719 C 245.449219 272.320312 249.46875 270.359375 247.917969 267.640625 C 246.339844 264.882812 242.851562 267.761719 240.621094 268.933594 C 216.363281 281.679688 192.0625 294.335938 167.375 306.25 C 162.613281 308.546875 157.414062 310.46875 153.484375 315.425781 C 156.992188 316.359375 159.105469 314.863281 161.117188 313.910156 Z M -109.820312 245.816406 C -108.304688 242.730469 -110.347656 240.324219 -111.480469 237.9375 C -124.570312 210.40625 -136.71875 182.480469 -147.609375 154.003906 C -148.835938 150.792969 -150.195312 147.410156 -153.945312 145.914062 C -150.953125 165.472656 -117.847656 240.46875 -109.820312 245.816406 Z M -250.574219 372.359375 C -266.238281 370.21875 -281.96875 368.546875 -297.511719 365.523438 C -312.566406 362.601562 -327.378906 358.320312 -342.726562 357.078125 C -345.507812 356.851562 -350.503906 355.3125 -350.863281 358.585938 C -351.292969 362.507812 -346.117188 361.953125 -343.167969 362.429688 C -317.546875 366.585938 -291.910156 370.648438 -266.25 374.578125 C -258.25 375.800781 -250.21875 377.472656 -240.515625 376.066406 C -244.511719 373.09375 -247.523438 372.777344 -250.574219 372.359375 Z M -48.070312 647.957031 C -49.945312 658.148438 -51.625 668.382812 -53.226562 678.621094 C -56.46875 699.339844 -59.667969 720.066406 -62.714844 740.816406 C -63.128906 743.640625 -64.609375 748.402344 -61.132812 748.886719 C -57.042969 749.457031 -58.070312 744.527344 -57.808594 741.777344 C -55.265625 715.007812 -51.582031 688.441406 -45.71875 662.15625 C -44.082031 654.816406 -41.972656 647.230469 -43.144531 638.132812 C -47.3125 641.363281 -47.496094 644.84375 -48.070312 647.957031 Z M 228.710938 443.433594 C 236.871094 444.652344 245.0625 445.699219 253.183594 447.140625 C 276.394531 451.25 299.570312 455.550781 322.777344 459.691406 C 325.410156 460.164062 329.769531 461.710938 330.25 458.636719 C 330.851562 454.796875 326.039062 455.382812 323.320312 454.734375 C 293.203125 447.539062 262.257812 445.621094 231.796875 440.574219 C 228.535156 440.03125 225.050781 438.660156 221.324219 440.726562 C 223.667969 443.128906 226.261719 443.066406 228.710938 443.433594 Z M -61.394531 590.304688 C -66.546875 593.363281 -67.214844 596.765625 -68.101562 599.722656 C -75.96875 625.976562 -84.875 651.867188 -94.773438 677.429688 C -96.265625 681.285156 -97.308594 685.484375 -94.734375 689.953125 C -80 658.570312 -72.105469 625.027344 -61.394531 590.304688 Z M -161.289062 731.261719 C -160.109375 731.828125 -158.929688 732.398438 -157.75 732.964844 C -140.742188 698.960938 -123.824219 664.910156 -109.539062 629.59375 C -129.007812 662.410156 -144.808594 697 -161.289062 731.261719 Z M 174.363281 463.300781 C 203.320312 470.847656 231.648438 480.425781 260.007812 489.902344 C 262.625 490.78125 265.734375 491.507812 270.003906 488.839844 C 238.164062 474.351562 205.496094 468.140625 172.785156 462.1875 C 173.308594 462.566406 173.777344 463.148438 174.363281 463.300781 Z M 86.277344 582.882812 C 99.917969 609.550781 112.976562 636.5 125.558594 663.683594 C 126.433594 665.570312 127.386719 668.140625 131.765625 667.640625 C 118.632812 636.546875 104.792969 606.433594 86.480469 577.808594 C 84.96875 580.332031 85.636719 581.636719 86.277344 582.882812 Z M -194.894531 508.210938 C -209.355469 516.707031 -224.222656 524.363281 -239.632812 531.003906 C -246.992188 534.175781 -254.285156 537.566406 -261.332031 541.363281 C -264.085938 542.847656 -269.746094 544.3125 -267.753906 548.035156 C -265.761719 551.75 -261.582031 547.828125 -258.597656 546.464844 C -235.820312 536.050781 -214.976562 522.027344 -192.613281 510.820312 C -188.980469 509 -185.148438 507.199219 -181.667969 503.109375 C -187.308594 503.613281 -191.097656 505.984375 -194.894531 508.210938 Z M -69.769531 179 C -67.882812 173.792969 -76.59375 120.8125 -80.339844 115.019531 C -83.785156 137.410156 -75.125 157.917969 -69.769531 179 Z M -215.085938 284.582031 C -225.648438 276.613281 -236.238281 268.679688 -246.832031 260.757812 C -250.429688 258.066406 -254.058594 255.421875 -257.707031 252.804688 C -259.085938 251.8125 -260.746094 250.882812 -262.128906 252.460938 C -263.472656 253.992188 -262.53125 255.589844 -261.304688 256.824219 C -259.972656 258.160156 -258.648438 259.558594 -257.105469 260.621094 C -243.886719 269.75 -230.636719 278.839844 -217.335938 287.851562 C -215.875 288.84375 -214.285156 290.164062 -211.765625 289.1875 C -211.667969 286.402344 -213.65625 285.664062 -215.085938 284.582031 Z M 144.011719 160.390625 C 145.375 158.519531 148.09375 155.539062 145.140625 153.703125 C 142.28125 151.929688 140.910156 155.761719 139.449219 157.628906 C 128.996094 171.019531 120.128906 185.492188 110.898438 199.71875 C 109.683594 201.59375 107.992188 203.460938 108.875 207.929688 C 121.15625 191.359375 132.671875 175.9375 144.011719 160.390625 Z M 45.71875 650.816406 C 47.171875 664.355469 49.164062 677.839844 51.0625 691.332031 C 51.308594 693.058594 51.757812 695.585938 54.183594 695.199219 C 56.292969 694.863281 55.601562 692.488281 55.550781 690.988281 C 54.910156 671.421875 49.5 652.644531 45.984375 633.542969 C 42.695312 639.453125 45.113281 645.175781 45.71875 650.816406 Z M 220.382812 350.269531 C 238.699219 346.644531 257.410156 346.039062 275.800781 343.027344 C 279.636719 342.398438 286.597656 342.90625 285.890625 338.558594 C 285.246094 334.601562 278.546875 337.101562 274.558594 337.5 C 256.679688 339.285156 239.621094 345.664062 221.65625 347.054688 C 220.125 347.175781 218.335938 347.375 217.90625 349.355469 C 218.527344 350.5 219.480469 350.445312 220.382812 350.269531 Z M 236.738281 562.761719 C 238.460938 563.925781 240.953125 566.613281 242.75 563.882812 C 244.480469 561.257812 241.210938 559.785156 239.414062 558.625 C 224.394531 548.921875 209.304688 539.328125 194.171875 529.808594 C 192.25 528.601562 190.234375 527.226562 186.757812 528.648438 C 203.40625 540.039062 220.027344 551.464844 236.738281 562.761719 Z M -241.613281 464.527344 C -260.546875 467.953125 -279.480469 471.351562 -298.398438 474.855469 C -299.921875 475.136719 -302.125 475.878906 -301.757812 477.8125 C -301.269531 480.398438 -298.875 479.449219 -297.070312 479.332031 C -285.257812 478.558594 -273.796875 475.890625 -262.453125 472.6875 C -255.328125 470.675781 -248.273438 468.398438 -241.1875 466.242188 C -241.328125 465.671875 -241.472656 465.097656 -241.613281 464.527344 Z M -136.671875 612.238281 C -146.488281 625.78125 -156.894531 638.941406 -164.472656 653.976562 C -165.257812 655.539062 -167.480469 657.542969 -165.371094 658.867188 C -163.070312 660.308594 -161.597656 657.574219 -160.535156 655.941406 C -153.453125 645.085938 -146.378906 634.21875 -139.605469 623.171875 C -136.867188 618.699219 -133.152344 614.625 -131.949219 608.984375 C -134.734375 609.023438 -135.667969 610.851562 -136.671875 612.238281 Z M -258.363281 406.679688 C -274.023438 405.496094 -289.441406 402.136719 -305.234375 402.222656 C -307.355469 402.234375 -310.664062 401.347656 -310.5 405.027344 C -310.359375 408.171875 -307.304688 408 -305.019531 408.15625 C -297.488281 408.664062 -289.953125 409.246094 -282.410156 409.457031 C -274.488281 409.679688 -266.554688 409.507812 -258.625 409.507812 C -258.539062 408.566406 -258.449219 407.625 -258.363281 406.679688 Z M -10.265625 222.792969 C -9.867188 218.621094 -9.382812 214.457031 -9.09375 210.28125 C -8.1875 197.082031 -6.269531 183.933594 -6.917969 170.65625 C -7.027344 168.414062 -6.203125 164.785156 -8.992188 164.601562 C -12.355469 164.382812 -10.980469 168.117188 -11.320312 170.179688 C -13.429688 183.105469 -12.117188 196.152344 -12.535156 209.136719 C -12.679688 213.683594 -12.558594 218.238281 -12.558594 222.785156 C -11.792969 222.789062 -11.027344 222.789062 -10.265625 222.792969 Z M -3.5625 103.234375 C -3.558594 103.003906 -3.632812 102.765625 -3.703125 102.542969 C -4.046875 101.449219 -4.183594 100.109375 -5.71875 100.0625 C -7.121094 100.015625 -7.871094 101.058594 -8.117188 102.207031 C -9.109375 106.804688 -10.335938 111.390625 -10.808594 116.046875 C -11.863281 126.425781 -12.890625 136.867188 -8.644531 147.078125 C -6.050781 132.535156 -3.828125 118.003906 -3.5625 103.234375 Z M 163.453125 589.65625 C 169.746094 596.878906 175.96875 604.160156 182.355469 611.296875 C 186.132812 615.515625 190.105469 619.570312 194.140625 623.546875 C 195.207031 624.597656 196.828125 626.183594 198.417969 624.714844 C 199.972656 623.277344 198.703125 621.5625 197.660156 620.335938 C 187.71875 608.648438 177.230469 597.515625 164.828125 588.398438 C 164.371094 588.820312 163.910156 589.238281 163.453125 589.65625 Z M 172.796875 228.789062 C 179.246094 222.25 186.011719 216.121094 193.660156 210.960938 C 196.953125 208.738281 199.890625 205.960938 202.890625 203.328125 C 204.34375 202.050781 205.664062 200.167969 204.410156 198.402344 C 202.941406 196.324219 201.085938 197.953125 199.488281 198.847656 C 191.925781 203.078125 186.621094 209.851562 180.945312 216.039062 C 176.257812 221.148438 169.089844 223.859375 165.96875 231.613281 C 169.640625 232.261719 171.230469 230.382812 172.796875 228.789062 Z M 272.417969 413.085938 C 276.398438 413.566406 280.40625 413.65625 284.34375 412.667969 C 285.835938 412.289062 288.019531 412.519531 288.078125 410.257812 C 288.140625 407.925781 286.0625 408 284.488281 407.933594 C 269.015625 407.285156 253.539062 405.476562 237.550781 408.742188 C 249.171875 410.195312 260.789062 411.683594 272.417969 413.085938 Z M -222.4375 611.269531 C -223.355469 612.214844 -224.777344 613.527344 -223.574219 614.882812 C -222.074219 616.578125 -220.484375 615.175781 -219.304688 614.117188 C -213.863281 609.238281 -208.382812 604.390625 -203.148438 599.292969 C -197.332031 593.632812 -190.878906 588.472656 -187.671875 580.429688 C -200.304688 589.585938 -211.644531 600.125 -222.4375 611.269531 Z M -235.847656 404.527344 C -237.257812 404.527344 -238.835938 404.925781 -239.011719 406.707031 C -239.183594 408.457031 -237.871094 409.253906 -236.371094 409.402344 C -223.296875 410.695312 -210.234375 411.457031 -197.234375 407.6875 C -209.953125 404.46875 -222.902344 404.519531 -235.847656 404.527344 Z M -15.207031 662.816406 C -15.613281 671.269531 -16.125 679.722656 -16.382812 688.179688 C -16.578125 694.542969 -16.515625 700.914062 -16.410156 707.277344 C -16.386719 708.589844 -15.96875 710.300781 -14.214844 710.410156 C -12.316406 710.53125 -12.046875 708.726562 -11.871094 707.449219 C -9.804688 692.46875 -13.019531 677.738281 -12.71875 662.835938 C -13.550781 662.828125 -14.378906 662.824219 -15.207031 662.816406 Z M -17.054688 597.875 C -17.054688 611.355469 -17.015625 624.839844 -16.871094 638.320312 C -16.847656 640.523438 -17.308594 643.828125 -13.777344 643.480469 C -10.578125 643.164062 -11.121094 639.960938 -11.246094 637.738281 C -11.753906 628.773438 -12.457031 619.816406 -13.089844 610.859375 C -13.480469 605.292969 -13.875 599.730469 -14.3125 593.523438 C -17.332031 595.015625 -17.054688 596.59375 -17.054688 597.875 Z M -141.894531 275.628906 C -150.578125 265.144531 -159.222656 254.628906 -168 244.222656 C -169.074219 242.953125 -170.792969 240.917969 -172.652344 243.042969 C -174.148438 244.75 -172.941406 246.679688 -171.660156 248.117188 C -166.636719 253.746094 -161.753906 259.523438 -156.394531 264.816406 C -152.167969 268.992188 -148.882812 274.320312 -143.308594 277 C -142.835938 276.542969 -142.367188 276.085938 -141.894531 275.628906 Z M 146.683594 573.507812 C 147.90625 574.574219 149.550781 575.640625 150.984375 573.859375 C 152.0625 572.519531 151.191406 571.074219 150.214844 570.089844 C 140.527344 560.359375 130.90625 550.542969 119.203125 543.019531 C 127.214844 554.25 136.3125 564.457031 146.683594 573.507812 Z M -186.441406 228.792969 C -195.410156 218.054688 -204.359375 207.304688 -213.371094 196.605469 C -214.457031 195.3125 -216.101562 194.222656 -217.644531 195.59375 C -219.484375 197.230469 -218.402344 199.054688 -217.09375 200.53125 C -207.921875 210.902344 -198.5 221.027344 -188.109375 230.175781 C -187.550781 229.714844 -186.996094 229.253906 -186.441406 228.792969 Z M 152.265625 248.417969 C 153.207031 247.421875 154.261719 245.933594 152.730469 244.789062 C 151.425781 243.8125 150.050781 244.953125 148.929688 245.761719 C 137.144531 254.25 128.753906 265.976562 119.546875 277.027344 C 131.550781 268.714844 142.261719 258.957031 152.265625 248.417969 Z M 159.191406 344.0625 C 173.382812 340.117188 186.804688 337.226562 198.769531 330.207031 C 190.414062 328.230469 163.179688 337.878906 159.191406 344.0625 Z M 22.835938 187.179688 C 22.988281 185.890625 23.15625 184.15625 21.25 183.816406 C 19.910156 183.578125 19.058594 184.535156 18.746094 185.757812 C 15.792969 197.289062 13.640625 208.914062 14.746094 221.050781 C 20.226562 210.40625 21.484375 198.777344 22.835938 187.179688 Z M -210.324219 314.378906 C -211.570312 313.804688 -213.257812 313.75 -214.015625 315.296875 C -214.707031 316.714844 -214.121094 318.117188 -212.78125 318.929688 C -204.03125 324.257812 -194.898438 328.691406 -184.597656 330.582031 C -192.121094 323.453125 -201.0625 318.648438 -210.324219 314.378906 Z M 68.203125 614.164062 C 68.792969 615.496094 69.476562 617.007812 71.144531 616.515625 C 73.347656 615.871094 72.710938 613.769531 72.320312 612.355469 C 70.453125 605.570312 68.582031 598.773438 66.292969 592.125 C 65.203125 588.96875 64.640625 585.21875 58.898438 582.265625 C 62.671875 593.972656 63.902344 604.460938 68.203125 614.164062 Z M -96.988281 198.6875 C -97.359375 212.183594 -92.878906 224.148438 -86.117188 235.394531 C -88.101562 222.640625 -90.78125 210.109375 -96.988281 198.6875 Z M 223.695312 408.320312 C 207.894531 408.320312 192.761719 408.320312 177.628906 408.320312 C 191.292969 413.164062 217.597656 412.726562 223.695312 408.320312 Z M 40.304688 619.867188 C 40.574219 621.414062 41.332031 623.328125 43.308594 623.28125 C 44.976562 623.242188 45.550781 621.628906 45.324219 620.152344 C 43.730469 609.859375 42.914062 599.367188 37.722656 589.835938 C 37.078125 600.015625 38.558594 609.960938 40.304688 619.867188 Z M 140.570312 295.082031 C 148.804688 289.824219 158.121094 286.445312 165.507812 279.722656 C 166.875 278.480469 168.707031 276.898438 167.207031 274.980469 C 165.757812 273.132812 163.613281 274.207031 162.136719 275.34375 C 154.519531 281.210938 146.992188 287.199219 139.4375 293.144531 C 139.8125 293.789062 140.191406 294.4375 140.570312 295.082031 Z M -63.816406 204.972656 C -64.035156 201.460938 -64.054688 195.0625 -67.210938 195.484375 C -71.179688 196.015625 -67.8125 201.453125 -67.988281 204.714844 C -68.507812 214.214844 -65.65625 223.023438 -61.253906 233.359375 C -60.152344 222.417969 -63.261719 213.816406 -63.816406 204.972656 Z M 158.71875 484.710938 C 169.394531 490.152344 180.046875 495.644531 190.773438 500.988281 C 192.300781 501.75 194.65625 502.980469 195.632812 500.605469 C 196.402344 498.730469 194.085938 497.992188 192.730469 497.1875 C 182.335938 491.015625 170.652344 487.96875 159.785156 482.941406 C 159.429688 483.53125 159.074219 484.121094 158.71875 484.710938 Z M -220.464844 484.203125 C -222.011719 484.800781 -223.871094 485.425781 -222.949219 487.636719 C -222.277344 489.25 -220.507812 489.125 -219.21875 488.742188 C -209.117188 485.777344 -198.84375 483.210938 -189.796875 476.980469 C -200.335938 477.90625 -210.566406 480.390625 -220.464844 484.203125 Z M -173.765625 565.5625 C -174.589844 566.738281 -176.71875 568.058594 -174.679688 569.585938 C -173.113281 570.757812 -171.527344 569.421875 -170.429688 568.171875 C -162.859375 559.554688 -155.335938 550.894531 -147.796875 542.25 C -157.863281 548.585938 -166.964844 555.882812 -173.765625 565.5625 Z M 78.074219 205.898438 C 68.820312 213.949219 64.511719 224.90625 60.75 236.25 C 67.488281 226.734375 76.089844 218.195312 78.074219 205.898438 Z M 172.3125 519.925781 C 173.492188 520.558594 175.109375 521.234375 175.917969 519.457031 C 176.460938 518.253906 175.515625 517.203125 174.5625 516.476562 C 166 509.953125 156.585938 504.886719 146.703125 500.5 C 154.277344 508.363281 162.804688 514.816406 172.3125 519.925781 Z M 118.492188 586.425781 C 119.5625 587.648438 120.972656 589.40625 122.597656 588.445312 C 124.527344 587.300781 123.15625 585.4375 122.242188 584.160156 C 116.214844 575.757812 110.722656 566.9375 102.8125 559.925781 C 107.195312 569.304688 111.644531 578.582031 118.492188 586.425781 Z M -103.484375 608.960938 C -103.976562 610.292969 -104.171875 612.015625 -102.734375 612.785156 C -101.328125 613.542969 -99.882812 612.675781 -99.246094 611.289062 C -95.1875 602.441406 -90.347656 593.90625 -88.363281 584.140625 C -94.957031 591.511719 -100.058594 599.734375 -103.484375 608.960938 Z M -217.761719 458.652344 C -219.546875 459.097656 -221.832031 459.394531 -221.140625 462.042969 C -220.585938 464.167969 -218.441406 463.695312 -216.976562 463.480469 C -208.464844 462.230469 -200.304688 459.703125 -192.410156 456.042969 C -201.25 454.128906 -209.484375 456.585938 -217.761719 458.652344 Z M -193.25 297.636719 C -194.371094 296.816406 -196.109375 296.609375 -196.988281 298.117188 C -197.597656 299.167969 -197.128906 300.472656 -196.148438 301.300781 C -189.179688 307.214844 -181.792969 312.433594 -172.6875 314.757812 C -178.554688 307.707031 -186.078125 302.882812 -193.25 297.636719 Z M -164.898438 524.824219 C -174.273438 528.898438 -182.691406 534.296875 -189.140625 542.433594 C -178.898438 539.492188 -171.472656 532.738281 -164.898438 524.824219 Z M -124.046875 594.976562 C -124.601562 596.082031 -124.765625 597.402344 -123.382812 597.921875 C -122.675781 598.1875 -121.257812 597.96875 -120.851562 597.4375 C -115.246094 590.09375 -109.773438 582.648438 -108.1875 573.128906 C -114.941406 579.398438 -119.953125 586.859375 -124.046875 594.976562 Z M 100.097656 220.867188 C 89.851562 227.546875 85.726562 238.511719 80.535156 248.613281 C 87.257812 239.4375 96.558594 232.113281 100.097656 220.867188 Z M -141.574219 238.714844 C -142.667969 237.359375 -143.808594 234.625 -145.785156 236 C -148.109375 237.621094 -145.960938 239.882812 -144.878906 241.507812 C -139.941406 248.9375 -134.726562 256.164062 -127.910156 262.226562 C -131.683594 253.898438 -135.839844 245.84375 -141.574219 238.714844 Z M 194.8125 356.175781 C 196.324219 355.65625 199.175781 355.558594 198.503906 352.953125 C 197.984375 350.9375 195.792969 351.773438 194.214844 351.988281 C 185.152344 353.21875 176.703125 356.449219 168.398438 360.101562 C 177.394531 359.472656 186.324219 359.082031 194.8125 356.175781 Z M 101.847656 262.59375 C 110.136719 257.078125 116.9375 250.347656 120.085938 240.632812 C 112.230469 246.503906 105.570312 253.347656 101.847656 262.59375 Z M 176.160156 435.089844 C 186.195312 438.136719 196.277344 440.441406 206.796875 437.785156 C 196.714844 435.191406 186.613281 432.480469 176.160156 435.089844 Z M -225.035156 374.105469 C -226.75 374.066406 -228.5 374.640625 -229.027344 376.429688 C -229.503906 378.03125 -228.316406 379.386719 -226.8125 379.371094 C -219.199219 379.292969 -211.632812 381.792969 -203.929688 379.566406 C -210.789062 376.707031 -217.652344 374.273438 -225.035156 374.105469 Z M 7.371094 613.722656 C 7.605469 614.933594 8.300781 616.082031 9.578125 615.933594 C 10.183594 615.859375 11.101562 614.597656 11.105469 613.871094 C 11.132812 606.550781 12.0625 599.082031 8.035156 592.316406 C 5.113281 599.515625 5.996094 606.617188 7.371094 613.722656 Z M -43.796875 623.808594 C -43.839844 625.296875 -44.382812 627.628906 -42.011719 627.636719 C -40.066406 627.640625 -39.917969 625.503906 -39.5625 623.886719 C -37.53125 614.695312 -38.777344 605.28125 -37.835938 595.96875 C -40.585938 605.09375 -43.539062 614.160156 -43.796875 623.808594 Z M 149.828125 538.757812 C 150.972656 539.472656 152.570312 539.886719 153.421875 538.140625 C 154.183594 536.574219 153.214844 535.429688 152.074219 534.558594 C 146.566406 530.351562 140.675781 526.804688 133.785156 524.789062 C 137.894531 530.964844 143.773438 534.980469 149.828125 538.757812 Z M -215.480469 435.328125 C -216.164062 435.964844 -216.707031 436.734375 -216.234375 437.765625 C -215.660156 439.019531 -214.519531 439.242188 -213.332031 439.253906 C -206.75 439.335938 -200.695312 437.449219 -194.109375 434.757812 C -198.3125 432.402344 -213.136719 433.152344 -215.480469 435.328125 Z M -143.523438 568.347656 C -144.171875 569.371094 -144.515625 570.535156 -143.457031 571.550781 C -142.34375 572.617188 -141.136719 572.105469 -140.363281 571.25 C -135.578125 565.972656 -130.363281 560.917969 -129.644531 553.097656 C -135.417969 557.199219 -139.796875 562.480469 -143.523438 568.347656 Z M -172.203125 279.074219 C -173.3125 278.28125 -174.835938 277.546875 -175.878906 279.15625 C -176.597656 280.261719 -176.101562 281.570312 -175.097656 282.285156 C -169.117188 286.511719 -164.539062 292.828125 -156.773438 294.382812 C -160.71875 287.894531 -166.300781 283.304688 -172.203125 279.074219 Z M 194.570312 382.4375 C 185.699219 380.6875 179.109375 381.992188 172.785156 385.332031 C 179.773438 386.984375 186.605469 387.574219 194.570312 382.4375 Z M -35.554688 206.042969 C -35.636719 205.316406 -36.539062 204.449219 -37.273438 204.089844 C -38.253906 203.613281 -39.316406 204.382812 -39.371094 205.285156 C -39.773438 211.84375 -40.867188 218.542969 -36.238281 226.328125 C -33.871094 218.371094 -34.847656 212.183594 -35.554688 206.042969 Z M -35.554688 206.042969 " fill-opacity="1" fill-rule="nonzero"/></svg>